<svg viewBox="0 0 179 178" fill="none" xmlns="http://www.w3.org/2000/svg">
<path d="M26 59L6 7.5L47.5 18.5L65.5 36.5V52.5L166.5 147.5L174.5 164L161.5 172.5L75.5 88L47.5 68L26 59Z" fill="#414042"/>
<path d="M50.5446 66.2666L65.5446 51.2666M50.5446 66.2666C50.5446 66.2666 29.4284 74.7667 15.0446 37.2667C0.660812 -0.233355 0.0447464 1.41659 38.5445 14.2666C77.0443 27.1166 65.5446 51.2666 65.5446 51.2666M50.5446 66.2666L82.0759 96.7666M65.5446 51.2666L98.0445 81.7666M98.0445 81.7666L82.0759 96.7666M98.0445 81.7666C98.0445 81.7666 163.045 141.267 169.545 153.267C176.045 165.267 170.545 176.267 157.545 169.767C144.545 163.267 82.0759 96.7666 82.0759 96.7666" stroke="white" stroke-width="12"/>
</svg>
