<svg viewBox="0 0 240 240" fill="none" xmlns="http://www.w3.org/2000/svg">
<path d="M30 71.25H60C62.0709 71.25 63.75 69.5709 63.75 67.5V56.25H56.25V63.75H33.75V41.25H45V33.75H30C27.9291 33.75 26.25 35.4291 26.25 37.5V67.5C26.25 69.5709 27.9291 71.25 30 71.25Z" fill="#fff"/>
<path d="M45 50.9473L40.1514 46.0986L34.8486 51.4014L42.3486 58.9014C43.081 59.6338 44.0405 60 45 60C45.9595 60 46.9189 59.6338 47.6514 58.9014L70.1514 36.4014L64.8486 31.0986L45 50.9473Z" fill="#fff"/>
<path d="M56.25 112.5H33.75V90H45V82.5H30C27.9291 82.5 26.25 84.1791 26.25 86.25V116.25C26.25 118.321 27.9291 120 30 120H60C62.0709 120 63.75 118.321 63.75 116.25V105H56.25V112.5Z" fill="#fff"/>
<path d="M45 99.6973L40.1514 94.8486L34.8486 100.151L42.3486 107.651C43.081 108.384 44.0405 108.75 45 108.75C45.9595 108.75 46.9189 108.384 47.6514 107.651L70.1514 85.1514L64.8486 79.8486L45 99.6973Z" fill="#fff"/>
<path d="M56 205.651H33.5V183.151H44.75V175.651H29.75C27.6791 175.651 26 177.33 26 179.401V209.401C26 211.472 27.6791 213.151 29.75 213.151H59.75C61.8209 213.151 63.5 211.472 63.5 209.401V198.151H56V205.651Z" fill="#fff"/>
<path d="M44.75 192.849L39.9014 188L34.5986 193.303L42.0986 200.803C42.831 201.535 43.7905 201.901 44.75 201.901C45.7095 201.901 46.6689 201.535 47.4014 200.803L69.9014 178.303L64.5986 173L44.75 192.849Z" fill="#fff"/>
<path d="M56 157.651H33.5V135.151H44.75V127.651H29.75C27.6791 127.651 26 129.33 26 131.401V161.401C26 163.472 27.6791 165.151 29.75 165.151H59.75C61.8209 165.151 63.5 163.472 63.5 161.401V150.151H56V157.651Z" fill="#fff"/>
<path d="M44.75 144.849L39.9014 140L34.5986 145.303L42.0986 152.803C42.831 153.535 43.7905 153.901 44.75 153.901C45.7095 153.901 46.6689 153.535 47.4014 152.803L69.9014 130.303L64.5986 125L44.75 144.849Z" fill="#fff"/>
<path d="M191.25 45.255C189.785 43.7901 186.465 42.3253 185 43.7901L191.25 45.255L152.651 8.59864C151.948 7.89551 150.994 7.5 150 7.5H11.25C9.17906 7.5 7.5 9.17906 7.5 11.25V228.75C7.5 230.821 9.17906 232.5 11.25 232.5H187.5C189.571 232.5 191.25 230.821 191.25 228.75V80.3027L187.5 91C188.965 89.5352 189.253 86 191.25 84.5V45.255ZM183.75 225H15V15H148.447L178.447 45H153.75V26.25H146.25V48.75C146.25 50.8209 147.929 52.5 150 52.5H178.447L182.21 43.7901C179.5 40.5 181.488 44.7038 181.303 45.255L182.21 43.7901C181.761 45.1378 177 50.5 178.447 52.5H184C188.75 52.5 186.5 61 186.5 61L184 89.5C184.551 89.315 192.447 87 186.5 87L185.5 52L184 52.5L183.75 225ZM187.5 58.5L189 61L191.25 59.8027L187.5 58.5ZM190 52.5L185 43.7901L184 89.5L188.5 55.5L190 52.5Z" fill="#fff"/>
<path d="M168.75 210H176.25V217.5H168.75V210Z" fill="#fff"/>
<path d="M153.75 210H161.25V217.5H153.75V210Z" fill="#fff"/>
<path d="M138.75 210H146.25V217.5H138.75V210Z" fill="#fff"/>
</svg>
