<svg viewBox="0 0 293 293" fill="none" xmlns="http://www.w3.org/2000/svg">
<path d="M35.9039 283.231C34.8395 282.166 33.3631 281.555 31.858 281.555C30.3472 281.555 28.8765 282.166 27.8121 283.231C26.742 284.296 26.1354 285.772 26.1354 287.277C26.1354 288.782 26.742 290.259 27.8121 291.323C28.8765 292.387 30.3478 293 31.858 293C33.3631 293 34.8395 292.388 35.9039 291.323C36.9678 290.259 37.5807 288.782 37.5807 287.277C37.5807 285.772 36.9684 284.296 35.9039 283.231Z" fill="white"/>
<path d="M213.495 242.789C212.431 241.724 210.954 241.113 209.449 241.113C207.944 241.113 206.468 241.724 205.403 242.789C204.339 243.854 203.727 245.33 203.727 246.835C203.727 248.346 204.338 249.817 205.403 250.881C206.468 251.945 207.944 252.558 209.449 252.558C210.954 252.558 212.431 251.946 213.495 250.881C214.559 249.817 215.172 248.346 215.172 246.835C215.172 245.33 214.56 243.854 213.495 242.789Z" fill="white"/>
<path d="M274.543 92.4896C278.873 88.1403 281.555 82.147 281.555 75.5391V70.9609C281.555 57.7078 270.773 46.9258 257.52 46.9258C244.266 46.9258 233.484 57.7078 233.484 70.9609V75.5391C233.484 82.1482 236.167 88.1415 240.498 92.4913C231.105 97.6497 224.284 106.932 222.5 117.887H196.287C186.821 117.887 179.119 125.588 179.119 135.055C179.119 137.061 179.468 138.986 180.103 140.777H112.897C113.532 138.986 113.881 137.061 113.881 135.055C113.881 125.588 106.179 117.887 96.7129 117.887H70.4997C68.7159 106.932 61.8945 97.6491 52.5019 92.4913C56.8334 88.1415 59.5156 82.1482 59.5156 75.5391V70.9609C59.5156 57.7078 48.7336 46.9258 35.4805 46.9258C22.2274 46.9258 11.4453 57.7078 11.4453 70.9609V75.5391C11.4453 82.147 14.1269 88.1403 18.4573 92.4896C7.46749 98.5253 0 110.21 0 123.609V180.836V187.799C0 205.732 14.5899 220.322 32.5236 220.322H77.8281V274.974C77.8281 277.296 78.2745 279.515 79.0774 281.555H56.4637C53.3037 281.555 50.7411 284.117 50.7411 287.277C50.7411 290.437 53.3037 293 56.4637 293H261.144C264.304 293 266.866 290.437 266.866 287.277C266.866 284.117 264.304 281.555 261.144 281.555H213.923C214.725 279.515 215.172 277.296 215.172 274.974V268.393C215.172 265.233 212.609 262.67 209.449 262.67C206.289 262.67 203.727 265.233 203.727 268.393V274.974C203.727 278.602 200.774 281.555 197.146 281.555C193.517 281.555 190.564 278.602 190.564 274.974V202.725C190.564 193.811 197.817 186.559 206.731 186.559H227.762H232.34H281.555V187.799C281.555 199.421 272.099 208.877 260.476 208.877H209.449C206.289 208.877 203.727 211.44 203.727 214.6V223.756C203.727 226.916 206.289 229.479 209.449 229.479C212.609 229.479 215.172 226.916 215.172 223.756V220.322H260.476C278.41 220.322 293 205.732 293 187.799V180.836V123.609C293 110.21 285.533 98.5253 274.543 92.4896ZM244.93 70.9609C244.93 64.0188 250.577 58.3711 257.52 58.3711C264.462 58.3711 270.109 64.0188 270.109 70.9609V75.5391C270.109 82.4812 264.462 88.1289 257.52 88.1289C250.577 88.1289 244.93 82.4812 244.93 75.5391V70.9609ZM22.8906 70.9609C22.8906 64.0188 28.5383 58.3711 35.4805 58.3711C42.4226 58.3711 48.0703 64.0188 48.0703 70.9609V75.5391C48.0703 82.4812 42.4226 88.1289 35.4805 88.1289C28.5383 88.1289 22.8906 82.4812 22.8906 75.5391V70.9609ZM11.4453 123.609C11.4453 110.356 22.2274 99.5742 35.4805 99.5742C48.7336 99.5742 59.5156 110.356 59.5156 123.609C59.5156 126.769 62.0782 129.332 65.2383 129.332H96.7129C99.8684 129.332 102.436 131.899 102.436 135.055C102.436 138.21 99.8684 140.777 96.7129 140.777H63.387C54.288 140.777 45.9667 135.795 41.6695 127.774C40.1776 124.988 36.7085 123.939 33.9228 125.432C31.137 126.924 30.0886 130.392 31.5811 133.179C37.31 143.873 47.9244 150.879 59.8355 152.049C59.6284 152.64 59.5156 153.277 59.5156 153.939V175.113H11.4453V123.609ZM82.0526 175.113H70.9609V153.939C70.9609 153.341 70.8694 152.765 70.6988 152.223H82.0526C80.0983 155.592 78.9727 159.5 78.9727 163.668C78.9727 167.836 80.0977 171.744 82.0526 175.113ZM102.436 274.974C102.436 278.602 99.4832 281.555 95.8545 281.555C92.2258 281.555 89.2734 278.602 89.2734 274.974V214.6C89.2734 211.44 86.7108 208.877 83.5508 208.877H32.5236C20.9009 208.877 11.4453 199.421 11.4453 187.799V186.559H60.6602H65.2383H86.269C95.1832 186.559 102.436 193.811 102.436 202.725V274.974ZM129.332 281.555H112.632C113.435 279.515 113.881 277.296 113.881 274.974V202.725C113.881 196.691 111.93 191.107 108.633 186.559H129.332V281.555ZM152.223 281.555H140.777V186.559H152.223V281.555ZM180.368 281.555H163.668V186.559H184.367C181.071 191.107 179.119 196.691 179.119 202.725V274.974C179.119 277.296 179.566 279.515 180.368 281.555ZM191.137 175.113H101.863C95.5523 175.113 90.418 169.979 90.418 163.668C90.418 157.357 95.5523 152.223 101.863 152.223H191.137C197.448 152.223 202.582 157.357 202.582 163.668C202.582 169.979 197.448 175.113 191.137 175.113ZM222.039 153.939V175.113H210.947C212.902 171.744 214.027 167.836 214.027 163.668C214.027 159.5 212.902 155.592 210.947 152.223H222.301C222.131 152.765 222.039 153.341 222.039 153.939ZM281.555 175.113H233.484V153.939C233.484 153.277 233.372 152.64 233.164 152.049C245.076 150.879 255.69 143.873 261.419 133.179C262.911 130.392 261.863 126.924 259.077 125.432C256.29 123.94 252.823 124.989 251.33 127.774C247.033 135.795 238.712 140.777 229.613 140.777H196.287C193.132 140.777 190.564 138.21 190.564 135.055C190.564 131.899 193.132 129.332 196.287 129.332H227.762C230.922 129.332 233.484 126.769 233.484 123.609C233.484 110.356 244.266 99.5742 257.52 99.5742C270.773 99.5742 281.555 110.356 281.555 123.609V175.113Z" fill="white"/>
<path d="M187.703 0H105.297C95.8305 0 88.1289 7.70155 88.1289 17.168V73.25C88.1289 82.7164 95.8305 90.418 105.297 90.418H125.244L142.453 107.627C143.571 108.744 145.035 109.303 146.5 109.303C147.965 109.303 149.429 108.744 150.546 107.627L167.756 90.418H187.703C197.17 90.418 204.871 82.7164 204.871 73.25V17.168C204.871 7.70155 197.17 0 187.703 0ZM193.426 73.25C193.426 76.4055 190.859 78.9727 187.703 78.9727H165.385C163.867 78.9727 162.412 79.5758 161.338 80.6488L146.5 95.4865L131.662 80.6482C130.588 79.5758 129.133 78.9727 127.615 78.9727H105.297C102.141 78.9727 99.5742 76.4055 99.5742 73.25V17.168C99.5742 14.0125 102.141 11.4453 105.297 11.4453H187.703C190.859 11.4453 193.426 14.0125 193.426 17.168V73.25Z" fill="white"/>
<path d="M123.649 38.9713C122.585 37.9012 121.109 37.2946 119.604 37.2946C118.098 37.2946 116.622 37.9012 115.558 38.9713C114.493 40.0357 113.881 41.5122 113.881 43.0172C113.881 44.5223 114.493 45.9987 115.558 47.0631C116.622 48.1275 118.098 48.7399 119.604 48.7399C121.109 48.7399 122.585 48.1275 123.649 47.0631C124.713 45.9987 125.326 44.5223 125.326 43.0172C125.326 41.5122 124.714 40.0357 123.649 38.9713Z" fill="white"/>
<path d="M150.545 38.9713C149.482 37.9075 148.005 37.2946 146.5 37.2946C144.995 37.2946 143.518 37.9069 142.454 38.9713C141.39 40.0357 140.777 41.5122 140.777 43.0172C140.777 44.5223 141.389 45.9987 142.454 47.0631C143.518 48.1275 144.995 48.7399 146.5 48.7399C148.005 48.7399 149.482 48.1275 150.545 47.0631C151.61 45.9987 152.223 44.5223 152.223 43.0172C152.223 41.5122 151.61 40.0357 150.545 38.9713Z" fill="white"/>
<path d="M177.442 38.9713C176.378 37.9012 174.902 37.2946 173.396 37.2946C171.891 37.2946 170.415 37.9012 169.351 38.9713C168.286 40.0357 167.674 41.5122 167.674 43.0172C167.674 44.5223 168.286 45.9987 169.351 47.0631C170.415 48.1275 171.891 48.7399 173.396 48.7399C174.902 48.7399 176.378 48.1275 177.442 47.0631C178.506 45.9987 179.119 44.5223 179.119 43.0172C179.119 41.5122 178.507 40.0357 177.442 38.9713Z" fill="white"/>
<path d="M127.5 85L145.5 103.5L165 85" stroke="white"/>
<rect x="106" y="90" width="81" height="20" fill="#414042"/>
<path d="M106 84.7316H188" stroke="white" stroke-width="11.4"/>
<rect x="108" y="29" width="79" height="30" fill="#414042"/>
<path d="M156.5 57.5L157 56.5L158 55.5C157.897 56.1927 157.522 57.0039 156.5 57.5Z" fill="white"/>
</svg>
