<svg viewBox="0 0 352 352" fill="none" xmlns="http://www.w3.org/2000/svg">
<path d="M342 262.5V31.5C341.995 27.1255 340.255 22.9316 337.162 19.8384C334.068 16.7451 329.875 15.0051 325.5 15H28.5C24.1255 15.0051 19.9316 16.7451 16.8384 19.8384C13.7451 22.9316 12.0051 27.1255 12 31.5V262.5C12.0051 266.875 13.7451 271.068 16.8384 274.162C19.9316 277.255 24.1255 278.995 28.5 279H137.507L128.341 334H105.5C104.041 334 102.642 334.579 101.611 335.611C100.579 336.642 100 338.041 100 339.5C100 340.959 100.579 342.358 101.611 343.389C102.642 344.421 104.041 345 105.5 345H248.5C249.959 345 251.358 344.421 252.389 343.389C253.421 342.358 254 340.959 254 339.5C254 338.041 253.421 336.642 252.389 335.611C251.358 334.579 249.959 334 248.5 334H225.659L216.493 279H263.664H283.5C288 279 283.624 279 288 279C292.376 279 296 279 300 279C306.31 279 317.917 279 316 279H310.333H325.5C329.875 278.995 334.068 277.255 337.162 274.162C340.255 271.068 341.995 266.875 342 262.5ZM244.5 220L229.837 214.06L243 224L244.5 220ZM212.596 215.746L197.851 218.778C194.897 218.048 191.925 218.8 189.793 216.629C187.66 214.458 187.176 224.033 186.5 221.066H193L208.033 213.977C211 214.653 213.721 216.14 215.892 218.273C218.063 220.405 219.599 214.022 220.329 216.977L223 216L212.596 215.746ZM242.5 215L244.333 215.746C243.116 210.822 258.952 227.554 255.333 224C251.714 220.446 249.278 214.127 244.333 213L172.417 214.935C171.508 214.726 170.561 214.751 169.664 215.008C168.767 215.265 167.951 215.746 167.291 216.405C166.632 217.065 166.151 217.882 165.894 218.778C165.636 219.675 165.612 220.622 165.821 221.531L182 220.5C182.91 224.449 248.997 216 244.333 213H23V70H331V213H244.333L242.5 215ZM28.5 26H325.5C326.958 26.0016 328.356 26.5816 329.387 27.6127C330.418 28.6438 330.998 30.0418 331 31.5V59H23V31.5C23.0016 30.0418 23.5816 28.6438 24.6127 27.6127C25.6438 26.5816 27.0418 26.0016 28.5 26ZM214.507 334H139.493L148.659 279H205.341L214.507 334ZM28.5 268C27.0418 267.998 25.6438 267.418 24.6127 266.387C23.5816 265.356 23.0016 263.958 23 262.5V224H200.257H255.333L299.333 268H28.5ZM255.333 224H331V262.5C330.998 263.958 330.418 265.356 329.387 266.387C328.356 267.418 326.958 267.998 325.5 268H299.333L255.333 224Z" fill="white"/>
<path d="M187 231H165C163.541 231 162.142 231.579 161.111 232.611C160.079 233.642 159.5 235.041 159.5 236.5C159.5 237.959 160.079 239.358 161.111 240.389C162.142 241.421 163.541 242 165 242H187C188.459 242 189.858 241.421 190.889 240.389C191.921 239.358 192.5 237.959 192.5 236.5C192.5 235.041 191.921 233.642 190.889 232.611C189.858 231.579 188.459 231 187 231Z" fill="white"/>
<path d="M38.5 44C41.5376 44 44 41.5376 44 38.5C44 35.4624 41.5376 33 38.5 33C35.4624 33 33 35.4624 33 38.5C33 41.5376 35.4624 44 38.5 44Z" fill="white"/>
<path d="M60.5 44C63.5376 44 66 41.5376 66 38.5C66 35.4624 63.5376 33 60.5 33C57.4624 33 55 35.4624 55 38.5C55 41.5376 57.4624 44 60.5 44Z" fill="white"/>
<path d="M82.5 44C85.5376 44 88 41.5376 88 38.5C88 35.4624 85.5376 33 82.5 33C79.4624 33 77 35.4624 77 38.5C77 41.5376 79.4624 44 82.5 44Z" fill="white"/>
<path d="M71.5 88H82.5C83.9587 88 85.3576 87.4205 86.3891 86.3891C87.4205 85.3576 88 83.9587 88 82.5C88 81.0413 87.4205 79.6424 86.3891 78.6109C85.3576 77.5795 83.9587 77 82.5 77H71.5C70.0413 77 68.6424 77.5795 67.6109 78.6109C66.5795 79.6424 66 81.0413 66 82.5C66 83.9587 66.5795 85.3576 67.6109 86.3891C68.6424 87.4205 70.0413 88 71.5 88V88Z" fill="white"/>
<path d="M104.5 88H115.5C116.959 88 118.358 87.4205 119.389 86.3891C120.421 85.3576 121 83.9587 121 82.5C121 81.0413 120.421 79.6424 119.389 78.6109C118.358 77.5795 116.959 77 115.5 77H104.5C103.041 77 101.642 77.5795 100.611 78.6109C99.5795 79.6424 99 81.0413 99 82.5C99 83.9587 99.5795 85.3576 100.611 86.3891C101.642 87.4205 103.041 88 104.5 88Z" fill="white"/>
<path d="M49.5 187H44V181.5C44 180.041 43.4205 178.642 42.3891 177.611C41.3576 176.579 39.9587 176 38.5 176C37.0413 176 35.6424 176.579 34.6109 177.611C33.5795 178.642 33 180.041 33 181.5V192.5C33 193.959 33.5795 195.358 34.6109 196.389C35.6424 197.421 37.0413 198 38.5 198H49.5C50.9587 198 52.3576 197.421 53.3891 196.389C54.4205 195.358 55 193.959 55 192.5C55 191.041 54.4205 189.642 53.3891 188.611C52.3576 187.579 50.9587 187 49.5 187Z" fill="white"/>
<path d="M82.5 187H71.5C70.0413 187 68.6424 187.579 67.6109 188.611C66.5795 189.642 66 191.041 66 192.5C66 193.959 66.5795 195.358 67.6109 196.389C68.6424 197.421 70.0413 198 71.5 198H82.5C83.9587 198 85.3576 197.421 86.3891 196.389C87.4205 195.358 88 193.959 88 192.5C88 191.041 87.4205 189.642 86.3891 188.611C85.3576 187.579 83.9587 187 82.5 187Z" fill="white"/>
<path d="M115.5 187H104.5C103.041 187 101.642 187.579 100.611 188.611C99.5795 189.642 99 191.041 99 192.5C99 193.959 99.5795 195.358 100.611 196.389C101.642 197.421 103.041 198 104.5 198H115.5C116.959 198 118.358 197.421 119.389 196.389C120.421 195.358 121 193.959 121 192.5C121 191.041 120.421 189.642 119.389 188.611C118.358 187.579 116.959 187 115.5 187Z" fill="white"/>
<path d="M148.5 77H137.5C136.041 77 134.642 77.5795 133.611 78.6109C132.579 79.6424 132 81.0413 132 82.5C132 83.9587 132.579 85.3576 133.611 86.3891C134.642 87.4205 136.041 88 137.5 88H143V93.5C143 94.9587 143.579 96.3576 144.611 97.3891C145.642 98.4205 147.041 99 148.5 99C149.959 99 151.358 98.4205 152.389 97.3891C153.421 96.3576 154 94.9587 154 93.5V82.5C154 81.0413 153.421 79.6424 152.389 78.6109C151.358 77.5795 149.959 77 148.5 77Z" fill="white"/>
<path d="M148.5 110C147.041 110 145.642 110.579 144.611 111.611C143.579 112.642 143 114.041 143 115.5V126.5C143 127.959 143.579 129.358 144.611 130.389C145.642 131.421 147.041 132 148.5 132C149.959 132 151.358 131.421 152.389 130.389C153.421 129.358 154 127.959 154 126.5V115.5C154 114.041 153.421 112.642 152.389 111.611C151.358 110.579 149.959 110 148.5 110Z" fill="white"/>
<path d="M148.5 143C147.041 143 145.642 143.579 144.611 144.611C143.579 145.642 143 147.041 143 148.5V159.5C143 160.959 143.579 162.358 144.611 163.389C145.642 164.421 147.041 165 148.5 165C149.959 165 151.358 164.421 152.389 163.389C153.421 162.358 154 160.959 154 159.5V148.5C154 147.041 153.421 145.642 152.389 144.611C151.358 143.579 149.959 143 148.5 143Z" fill="white"/>
<path d="M148.5 176C147.041 176 145.642 176.579 144.611 177.611C143.579 178.642 143 180.041 143 181.5V187H137.5C136.041 187 134.642 187.579 133.611 188.611C132.579 189.642 132 191.041 132 192.5C132 193.959 132.579 195.358 133.611 196.389C134.642 197.421 136.041 198 137.5 198H148.5C149.959 198 151.358 197.421 152.389 196.389C153.421 195.358 154 193.959 154 192.5V181.5C154 180.041 153.421 178.642 152.389 177.611C151.358 176.579 149.959 176 148.5 176V176Z" fill="white"/>
<path d="M38.5 99C39.9587 99 41.3576 98.4205 42.3891 97.3891C43.4205 96.3576 44 94.9587 44 93.5V88H49.5C50.9587 88 52.3576 87.4205 53.3891 86.3891C54.4205 85.3576 55 83.9587 55 82.5C55 81.0413 54.4205 79.6424 53.3891 78.6109C52.3576 77.5795 50.9587 77 49.5 77H38.5C37.0413 77 35.6424 77.5795 34.6109 78.6109C33.5795 79.6424 33 81.0413 33 82.5V93.5C33 94.9587 33.5795 96.3576 34.6109 97.3891C35.6424 98.4205 37.0413 99 38.5 99Z" fill="white"/>
<path d="M38.5 132C39.9587 132 41.3576 131.421 42.3891 130.389C43.4205 129.358 44 127.959 44 126.5V115.5C44 114.041 43.4205 112.642 42.3891 111.611C41.3576 110.579 39.9587 110 38.5 110C37.0413 110 35.6424 110.579 34.6109 111.611C33.5795 112.642 33 114.041 33 115.5V126.5C33 127.959 33.5795 129.358 34.6109 130.389C35.6424 131.421 37.0413 132 38.5 132Z" fill="white"/>
<path d="M38.5 165C39.9587 165 41.3576 164.421 42.3891 163.389C43.4205 162.358 44 160.959 44 159.5V148.5C44 147.041 43.4205 145.642 42.3891 144.611C41.3576 143.579 39.9587 143 38.5 143C37.0413 143 35.6424 143.579 34.6109 144.611C33.5795 145.642 33 147.041 33 148.5V159.5C33 160.959 33.5795 162.358 34.6109 163.389C35.6424 164.421 37.0413 165 38.5 165Z" fill="white"/>
<path d="M203.5 132H170.5C169.041 132 167.642 132.579 166.611 133.611C165.579 134.642 165 136.041 165 137.5C165 138.959 165.579 140.358 166.611 141.389C167.642 142.421 169.041 143 170.5 143H203.5C204.959 143 206.358 142.421 207.389 141.389C208.421 140.358 209 138.959 209 137.5C209 136.041 208.421 134.642 207.389 133.611C206.358 132.579 204.959 132 203.5 132Z" fill="white"/>
<path d="M313.5 132H225.5C224.041 132 222.642 132.579 221.611 133.611C220.579 134.642 220 136.041 220 137.5C220 138.959 220.579 140.358 221.611 141.389C222.642 142.421 224.041 143 225.5 143H313.5C314.959 143 316.358 142.421 317.389 141.389C318.421 140.358 319 138.959 319 137.5C319 136.041 318.421 134.642 317.389 133.611C316.358 132.579 314.959 132 313.5 132Z" fill="white"/>
<path d="M313.5 154H236.5C235.041 154 233.642 154.579 232.611 155.611C231.579 156.642 231 158.041 231 159.5C231 160.959 231.579 162.358 232.611 163.389C233.642 164.421 235.041 165 236.5 165H313.5C314.959 165 316.358 164.421 317.389 163.389C318.421 162.358 319 160.959 319 159.5C319 158.041 318.421 156.642 317.389 155.611C316.358 154.579 314.959 154 313.5 154Z" fill="white"/>
<path d="M313.5 77H170.5C169.041 77 167.642 77.5795 166.611 78.6109C165.579 79.6424 165 81.0413 165 82.5V115.5C165 116.959 165.579 118.358 166.611 119.389C167.642 120.421 169.041 121 170.5 121H313.5C314.959 121 316.358 120.421 317.389 119.389C318.421 118.358 319 116.959 319 115.5V82.5C319 81.0413 318.421 79.6424 317.389 78.6109C316.358 77.5795 314.959 77 313.5 77ZM308 110H176V88H308V110Z" fill="white"/>
<path d="M132 104.5C132 103.041 131.421 101.642 130.389 100.611C129.358 99.5795 127.959 99 126.5 99H60.5C59.0413 99 57.6424 99.5795 56.6109 100.611C55.5795 101.642 55 103.041 55 104.5V170.5C55 171.959 55.5795 173.358 56.6109 174.389C57.6424 175.421 59.0413 176 60.5 176H126.5C127.959 176 129.358 175.421 130.389 174.389C131.421 173.358 132 171.959 132 170.5V104.5ZM121 165H66V110H121V165Z" fill="white"/>
</svg>
