<svg viewBox="0 0 213 71" fill="none" xmlns="http://www.w3.org/2000/svg">
<path d="M197.516 30.3871C194.408 30.3871 191.514 31.3342 189.103 32.9441L171.434 19.6967C171.884 18.2624 172.194 16.7688 172.194 15.1936C172.194 6.81781 165.376 0 157 0C148.624 0 141.806 6.81781 141.806 15.1936C141.806 16.937 142.16 18.5864 142.702 20.1468L114.337 42.8407C112.013 41.3915 109.293 40.5161 106.355 40.5161C102.947 40.5161 99.8313 41.6858 97.2941 43.585L75.4558 29.0245C75.76 27.8351 75.9677 26.6085 75.9677 25.3226C75.9677 16.9468 69.1499 10.129 60.7742 10.129C52.3985 10.129 45.5806 16.9468 45.5806 25.3226C45.5806 26.6085 45.7884 27.8351 46.0925 29.0245L24.2543 43.585C21.7171 41.6809 18.6012 40.5161 15.1935 40.5161C6.81781 40.5161 0 47.334 0 55.7097C0 64.0854 6.81781 70.9032 15.1935 70.9032C23.5693 70.9032 30.3871 64.0854 30.3871 55.7097C30.3871 54.4238 30.1794 53.1972 29.8752 52.0077L51.7135 37.4473C54.2507 39.3514 57.3665 40.5161 60.7742 40.5161C64.1819 40.5161 67.2977 39.3514 69.8349 37.4473L91.6732 52.0077C91.369 53.1972 91.1613 54.4287 91.1613 55.7097C91.1613 64.0854 97.9791 70.9032 106.355 70.9032C114.731 70.9032 121.548 64.0854 121.548 55.7097C121.548 53.9663 121.195 52.3169 120.653 50.7565L149.017 28.0626C151.342 29.5117 154.062 30.3871 157 30.3871C160.108 30.3871 163.002 29.44 165.413 27.8301L183.082 41.0775C182.632 42.5118 182.323 44.0054 182.323 45.5807C182.323 53.9564 189.14 60.7742 197.516 60.7742C205.892 60.7742 212.71 53.9564 212.71 45.5807C212.71 37.2049 205.892 30.3871 197.516 30.3871ZM15.1935 60.7742C12.4041 60.7742 10.129 58.4991 10.129 55.7097C10.129 52.9202 12.4041 50.6452 15.1935 50.6452C17.983 50.6452 20.2581 52.9202 20.2581 55.7097C20.2581 58.4991 17.983 60.7742 15.1935 60.7742ZM60.7742 30.3871C57.9848 30.3871 55.7097 28.112 55.7097 25.3226C55.7097 22.5331 57.9848 20.2581 60.7742 20.2581C63.5636 20.2581 65.8387 22.5331 65.8387 25.3226C65.8387 28.112 63.5636 30.3871 60.7742 30.3871ZM106.355 60.7742C103.565 60.7742 101.29 58.4991 101.29 55.7097C101.29 52.9202 103.565 50.6452 106.355 50.6452C109.144 50.6452 111.419 52.9202 111.419 55.7097C111.419 58.4991 109.144 60.7742 106.355 60.7742ZM157 20.2581C154.211 20.2581 151.935 17.983 151.935 15.1936C151.935 12.4041 154.211 10.129 157 10.129C159.789 10.129 162.065 12.4041 162.065 15.1936C162.065 17.983 159.789 20.2581 157 20.2581ZM197.516 50.6452C194.727 50.6452 192.452 48.3701 192.452 45.5807C192.452 42.7912 194.727 40.5161 197.516 40.5161C200.306 40.5161 202.581 42.7912 202.581 45.5807C202.581 48.3701 200.306 50.6452 197.516 50.6452Z" fill="white"/>
</svg>
