<svg viewBox="0 0 214 72" fill="none" xmlns="http://www.w3.org/2000/svg">
<path d="M198.161 30.7097C195.053 30.7097 192.16 31.6568 189.748 33.2667L172.08 20.0193C172.53 18.585 172.839 17.0914 172.839 15.5161C172.839 7.14038 166.021 0.322571 157.645 0.322571C149.269 0.322571 142.452 7.14038 142.452 15.5161C142.452 17.2595 142.805 18.909 143.347 20.4694L114.983 43.1632C112.658 41.7141 109.938 40.8387 107 40.8387C103.592 40.8387 100.476 42.0084 97.9392 43.9076L76.101 29.3471C76.4052 28.1576 76.6129 26.9311 76.6129 25.6452C76.6129 17.2694 69.7951 10.4516 61.4193 10.4516C53.0436 10.4516 46.2258 17.2694 46.2258 25.6452C46.2258 26.9311 46.4335 28.1576 46.7377 29.3471L24.8994 43.9076C22.3622 42.0035 19.2464 40.8387 15.8387 40.8387C7.46295 40.8387 0.645142 47.6565 0.645142 56.0323C0.645142 64.408 7.46295 71.2258 15.8387 71.2258C24.2144 71.2258 31.0322 64.408 31.0322 56.0323C31.0322 54.7464 30.8245 53.5198 30.5203 52.3303L52.3586 37.7698C54.8958 39.674 58.0117 40.8387 61.4193 40.8387C64.827 40.8387 67.9429 39.674 70.4801 37.7698L92.3183 52.3303C92.0142 53.5198 91.8064 54.7513 91.8064 56.0323C91.8064 64.408 98.6242 71.2258 107 71.2258C115.376 71.2258 122.194 64.408 122.194 56.0323C122.194 54.2889 121.84 52.6394 121.298 51.079L149.663 28.3851C151.987 29.8343 154.707 30.7097 157.645 30.7097C160.754 30.7097 163.647 29.7626 166.058 28.1527L183.727 41.4001C183.277 42.8343 182.968 44.328 182.968 45.9032C182.968 54.279 189.786 61.0968 198.161 61.0968C206.537 61.0968 213.355 54.279 213.355 45.9032C213.355 37.5275 206.537 30.7097 198.161 30.7097V30.7097ZM15.8387 61.0968C13.0492 61.0968 10.7742 58.8217 10.7742 56.0323C10.7742 53.2428 13.0492 50.9677 15.8387 50.9677C18.6281 50.9677 20.9032 53.2428 20.9032 56.0323C20.9032 58.8217 18.6281 61.0968 15.8387 61.0968ZM61.4193 30.7097C58.6299 30.7097 56.3548 28.4346 56.3548 25.6452C56.3548 22.8557 58.6299 20.5806 61.4193 20.5806C64.2088 20.5806 66.4839 22.8557 66.4839 25.6452C66.4839 28.4346 64.2088 30.7097 61.4193 30.7097ZM107 61.0968C104.211 61.0968 101.935 58.8217 101.935 56.0323C101.935 53.2428 104.211 50.9677 107 50.9677C109.789 50.9677 112.064 53.2428 112.064 56.0323C112.064 58.8217 109.789 61.0968 107 61.0968ZM157.645 20.5806C154.856 20.5806 152.581 18.3056 152.581 15.5161C152.581 12.7267 154.856 10.4516 157.645 10.4516C160.435 10.4516 162.71 12.7267 162.71 15.5161C162.71 18.3056 160.435 20.5806 157.645 20.5806ZM198.161 50.9677C195.372 50.9677 193.097 48.6927 193.097 45.9032C193.097 43.1138 195.372 40.8387 198.161 40.8387C200.951 40.8387 203.226 43.1138 203.226 45.9032C203.226 48.6927 200.951 50.9677 198.161 50.9677Z" fill="black"/>
</svg>
