<svg viewBox="0 0 47 39" fill="none" xmlns="http://www.w3.org/2000/svg">
<path d="M30.8387 30.5734C30.8387 30.5734 32.5 29 27.3387 33.5734C22.1775 38.1469 23.5263 38.0734 18.8387 33.5734C14.1512 29.0734 18.8387 33.5734 6.33875 21.5734C-6.16123 9.57341 11.1617 -5.80511 22.8387 6.57343M39.3387 21.5734C52.3387 8.57341 35.3387 -5.42657 23.3387 6.57343C23.2293 6.57343 23.0856 6.57343 22.9803 6.57343M22.8387 6.57343C22.8387 6.57343 22.8977 6.57343 22.9803 6.57343M22.8387 6.57343H22.9803" stroke="black" stroke-width="4"/>
<path d="M41.0589 22.7591C40.4731 23.3448 38.9508 23.4393 38.1698 22.6583C37.3888 21.8772 37.4647 20.575 38.1698 19.87C38.6698 19.37 39.9243 19.5031 40.7054 20.2842C41.4864 21.0652 41.6447 22.1733 41.0589 22.7591Z" fill="black"/>
<path d="M29.5 29L28 30.5L31 33L32 32L33 30.5L29.5 29Z" fill="black"/>
</svg>
