<svg width="71" height="266" viewBox="0 0 71 266" fill="none" xmlns="http://www.w3.org/2000/svg">
<path d="M35.5 7L8 47L6 248.5L16.5 259L57 257L63.5 248.5V124.5V43.5L35.5 7Z" fill="white"/>
<path d="M69.5664 43.2402L40.2318 2.50069C39.1015 0.930616 37.2848 0 35.3502 0C33.4155 0 31.5988 0.930616 30.4685 2.50069L1.13394 43.2402C0.396426 44.2641 0 45.4937 0 46.7552V47.7159V242.931C0 255.344 10.0984 265.442 22.511 265.442H48.1887C60.6019 265.442 70.7003 255.344 70.7003 242.931V47.7159V46.7552C70.7003 45.4937 70.3039 44.2635 69.5664 43.2402ZM35.3502 16.3107L53.6322 41.7002H17.0687L35.3502 16.3107ZM12.0312 53.7315H40.5934V209.545H30.1051V94.6412C30.1057 91.3182 27.4125 88.625 24.0901 88.625C20.7683 88.625 18.0745 91.3182 18.0745 94.6406V209.545H12.0312V53.7315ZM58.6691 242.93C58.6691 248.709 53.9679 253.41 48.1887 253.41H22.511C16.733 253.41 12.0312 248.709 12.0312 242.93V221.576H58.6691V242.93ZM58.6691 209.545H52.6252V53.7315H58.6691V209.545Z" fill="black"/>
<path d="M29.9866 69.3071C29.9084 68.9281 29.7941 68.5491 29.6437 68.1822C29.4933 67.8212 29.3068 67.4723 29.0903 67.1475C28.8737 66.8166 28.6211 66.5098 28.3443 66.2331C28.0676 65.9564 27.7608 65.7037 27.43 65.4812C27.1051 65.2646 26.7562 65.0841 26.3893 64.9337C26.0283 64.7833 25.6499 64.663 25.2643 64.5848C24.4883 64.4344 23.6882 64.4344 22.9122 64.5848C22.5332 64.663 22.1543 64.7833 21.7879 64.9337C21.4264 65.0841 21.0775 65.2646 20.7526 65.4812C20.4218 65.7037 20.115 65.9564 19.8383 66.2331C19.5615 66.5098 19.3089 66.8166 19.0863 67.1475C18.8697 67.4723 18.6832 67.8212 18.5329 68.1822C18.3825 68.5491 18.2682 68.9281 18.19 69.3071C18.1118 69.6981 18.0757 70.0951 18.0757 70.4862C18.0757 72.0683 18.7194 73.6203 19.8389 74.7392C20.9572 75.8581 22.5092 76.5018 24.0913 76.5018C24.4823 76.5018 24.8799 76.4597 25.2643 76.3815C25.6499 76.3032 26.0289 76.189 26.3893 76.0386C26.7562 75.8882 27.1051 75.7017 27.43 75.4851C27.7608 75.2686 28.0676 75.0159 28.3443 74.7392C28.6211 74.4625 28.8737 74.1557 29.0903 73.8248C29.3068 73.5 29.4933 73.1511 29.6437 72.7841C29.7941 72.4232 29.9084 72.0442 29.9866 71.6592C30.0648 71.2742 30.1063 70.8772 30.1063 70.4862C30.1063 70.0951 30.0648 69.6981 29.9866 69.3071Z" fill="black"/>
</svg>
