<svg viewBox="0 0 314 314" fill="none" xmlns="http://www.w3.org/2000/svg">
<path d="M30.3871 283.613H40.5161V293.742H30.3871V283.613Z" fill="black"/>
<path d="M50.6453 283.613H60.7743V293.742H50.6453V283.613Z" fill="black"/>
<path d="M70.9033 283.613H81.0324V293.742H70.9033V283.613Z" fill="black"/>
<path d="M243.097 283.613H283.613V293.742H243.097V283.613Z" fill="black"/>
<path d="M303.871 263.355V96.2258C303.871 82.2638 292.51 70.9032 278.548 70.9032H263.355C263.355 31.8041 231.551 0 192.452 0C153.352 0 121.548 31.8041 121.548 70.9032H35.4516C21.4896 70.9032 10.129 82.2638 10.129 96.2258V263.355H0V288.677C0 302.639 11.3605 314 25.3226 314H288.677C302.639 314 314 302.639 314 288.677V263.355H303.871ZM278.548 81.0323C286.924 81.0323 293.742 87.8501 293.742 96.2258V263.355H283.613V101.29C283.613 95.704 279.07 91.1613 273.484 91.1613H260.368C261.344 87.8797 262.049 84.4919 262.544 81.0323H278.548ZM134.62 52.2921L188.374 74.6917L206.78 129.899C202.175 131.02 197.395 131.677 192.452 131.677C158.939 131.677 131.677 104.416 131.677 70.9032C131.677 64.4094 132.726 58.1603 134.62 52.2921ZM216.402 126.739L198.246 72.2707L238.811 31.7027C247.785 42.2942 253.226 55.9669 253.226 70.9032C253.226 95.9117 238.032 117.426 216.402 126.739ZM192.452 10.129C207.388 10.129 221.061 15.5694 231.657 24.5387L191.272 64.9213L138.545 42.9569C148.679 23.4803 169.018 10.129 192.452 10.129ZM20.2581 96.2258C20.2581 87.8501 27.0759 81.0323 35.4516 81.0323H122.359C122.854 84.4919 123.554 87.8797 124.536 91.1613H40.5161C34.9298 91.1613 30.3871 95.704 30.3871 101.29V263.355H20.2581V96.2258ZM303.871 288.677C303.871 297.053 297.053 303.871 288.677 303.871H25.3226C16.9468 303.871 10.129 297.053 10.129 288.677V273.484H114.468C121.751 280.032 131.069 283.613 140.941 283.613H173.064C182.936 283.613 192.254 280.032 199.536 273.484H263.355V263.355H195.419L193.935 264.839C188.359 270.415 180.95 273.484 173.059 273.484H140.936C133.05 273.484 125.636 270.415 120.06 264.839L118.581 263.355H40.5161V101.29H128.487C139.897 125.206 164.238 141.806 192.452 141.806C220.665 141.806 245.006 125.206 256.416 101.29H273.484V273.484H303.871V288.677Z" fill="black"/>
<path d="M131.678 111.419H50.6453V182.323H131.678V111.419ZM121.548 172.194H60.7743V121.548H121.548V172.194Z" fill="black"/>
<path d="M70.9033 131.677H111.419V141.806H70.9033V131.677Z" fill="black"/>
<path d="M70.9033 151.935H111.419V162.065H70.9033V151.935Z" fill="black"/>
<path d="M141.806 162.065H151.935V172.194H141.806V162.065Z" fill="black"/>
<path d="M162.064 162.065H263.355V172.194H162.064V162.065Z" fill="black"/>
<ellipse cx="192.5" cy="71" rx="71.5" ry="71" fill="white"/>
<rect x="124" y="91" width="137" height="10" fill="black"/>
<rect x="119" y="71" width="147" height="10" fill="black"/>
</svg>
