<svg viewBox="0 0 314 315" fill="none" xmlns="http://www.w3.org/2000/svg">
<path d="M30.3871 284.613H40.5161V294.742H30.3871V284.613Z" fill="white"/>
<path d="M50.6453 284.613H60.7743V294.742H50.6453V284.613Z" fill="white"/>
<path d="M70.9033 284.613H81.0324V294.742H70.9033V284.613Z" fill="white"/>
<path d="M243.097 284.613H283.613V294.742H243.097V284.613Z" fill="white"/>
<path d="M303.871 264.355V97.2258C303.871 83.2638 292.51 71.9032 278.548 71.9032H263.355C263.355 32.8041 231.551 1 192.452 1C153.352 1 121.548 32.8041 121.548 71.9032H35.4516C21.4896 71.9032 10.129 83.2638 10.129 97.2258V264.355H0V289.677C0 303.639 11.3605 315 25.3226 315H288.677C302.639 315 314 303.639 314 289.677V264.355H303.871ZM278.548 82.0323C286.924 82.0323 293.742 88.8501 293.742 97.2258V264.355H283.613V102.29C283.613 96.704 279.07 92.1613 273.484 92.1613H260.368C261.344 88.8797 262.049 85.4919 262.544 82.0323H278.548ZM134.62 53.2921L188.374 75.6917L206.78 130.899C202.175 132.02 197.395 132.677 192.452 132.677C158.939 132.677 131.677 105.416 131.677 71.9032C131.677 65.4094 132.726 59.1603 134.62 53.2921ZM216.402 127.739L198.246 73.2707L238.811 32.7027C247.785 43.2942 253.226 56.9669 253.226 71.9032C253.226 96.9118 238.032 118.426 216.402 127.739ZM192.452 11.129C207.388 11.129 221.061 16.5694 231.657 25.5387L191.272 65.9213L138.545 43.9569C148.679 24.4803 169.018 11.129 192.452 11.129ZM20.2581 97.2258C20.2581 88.8501 27.0759 82.0323 35.4516 82.0323H122.359C122.854 85.4919 123.554 88.8797 124.536 92.1613H40.5161C34.9298 92.1613 30.3871 96.704 30.3871 102.29V264.355H20.2581V97.2258ZM303.871 289.677C303.871 298.053 297.053 304.871 288.677 304.871H25.3226C16.9468 304.871 10.129 298.053 10.129 289.677V274.484H114.468C121.751 281.032 131.069 284.613 140.941 284.613H173.064C182.936 284.613 192.254 281.032 199.536 274.484H263.355V264.355H195.419L193.935 265.839C188.359 271.415 180.95 274.484 173.059 274.484H140.936C133.05 274.484 125.636 271.415 120.06 265.839L118.581 264.355H40.5161V102.29H128.487C139.897 126.206 164.238 142.806 192.452 142.806C220.665 142.806 245.006 126.206 256.416 102.29H273.484V274.484H303.871V289.677Z" fill="white"/>
<path d="M131.678 112.419H50.6453V183.323H131.678V112.419ZM121.548 173.194H60.7743V122.548H121.548V173.194Z" fill="white"/>
<path d="M70.9033 132.677H111.419V142.806H70.9033V132.677Z" fill="white"/>
<path d="M70.9033 152.935H111.419V163.065H70.9033V152.935Z" fill="white"/>
<rect width="100" height="100" transform="translate(132 120)" fill="#414042"/>
<path d="M141.806 163.065H151.935V173.194H141.806V163.065Z" fill="white"/>
<path d="M162.064 163.065H263.355V173.194H162.064V163.065Z" fill="white"/>
<ellipse cx="192.5" cy="72" rx="71.5" ry="71" fill="#EEEEEE"/>
<rect x="124" y="92" width="137" height="10" fill="white"/>
<rect x="119" y="72" width="147" height="10" fill="white"/>
<path d="M258.5 72C258.5 108.138 228.987 137.5 192.5 137.5C156.013 137.5 126.5 108.138 126.5 72C126.5 35.8617 156.013 6.5 192.5 6.5C228.987 6.5 258.5 35.8617 258.5 72Z" stroke="white" stroke-width="11"/>
<circle cx="193" cy="72" r="61" fill="#414042"/>
<path d="M192 1L192.523 70.4998" stroke="white" stroke-width="8"/>
<path d="M248.567 112.085L193.145 70.1452L137.724 112.085" stroke="white" stroke-width="8"/>
</svg>
