<svg viewBox="0 0 352 352" fill="none" xmlns="http://www.w3.org/2000/svg">
<path d="M33 77H319V209H33V77Z" fill="white"/>
<path d="M324.5 21.8281H27.5C23.1255 21.8315 18.9316 22.9734 15.8384 25.0033C12.7451 27.0332 11.0051 29.7855 11 32.6562L12.0311 208.568C12.0362 211.439 13.7762 214.191 16.8695 216.221C19.9627 218.251 24.1566 219.393 28.5311 219.396L323.042 218.72C327.416 218.716 331.61 217.575 334.703 215.545C337.797 213.515 340.995 223.215 341 220.344V32.6562C340.995 29.7855 339.255 27.0332 336.162 25.0033C333.068 22.9734 328.875 21.8315 324.5 21.8281ZM27.5 29.0469H324.5C325.958 29.0479 327.356 29.4286 328.387 30.1052C329.418 30.7819 329.998 31.6993 330 32.6562V57.9219H22V32.6562C22.0016 31.6993 22.5816 30.7819 23.6127 30.1052C24.6438 29.4286 26.0418 29.0479 27.5 29.0469ZM323.042 211.501L28.5311 212.178C27.0729 212.177 25.6749 211.796 24.6438 211.119C23.6127 210.443 23.0327 209.525 23.0311 208.568L22 57.9219H330V220.344C329.998 221.301 327.96 209.766 326.929 210.443C325.898 211.119 324.5 211.5 323.042 211.501Z" fill="black"/>
<path d="M82.5 43.4844C85.5376 43.4844 88 41.8684 88 39.875C88 37.8816 85.5376 36.2656 82.5 36.2656C79.4624 36.2656 77 37.8816 77 39.875C77 41.8684 79.4624 43.4844 82.5 43.4844Z" fill="black"/>
<path d="M60.5 43.4844C63.5376 43.4844 66 41.8684 66 39.875C66 37.8816 63.5376 36.2656 60.5 36.2656C57.4624 36.2656 55 37.8816 55 39.875C55 41.8684 57.4624 43.4844 60.5 43.4844Z" fill="black"/>
<path d="M38.5 43.4844C41.5376 43.4844 44 41.8684 44 39.875C44 37.8816 41.5376 36.2656 38.5 36.2656C35.4624 36.2656 33 37.8816 33 39.875C33 41.8684 35.4624 43.4844 38.5 43.4844Z" fill="black"/>
<path d="M302.5 72H49.5C48.0413 72 46.6424 72.4273 45.6109 73.1878C44.5795 73.9484 44 74.98 44 76.0556V140.944C44 142.02 44.5795 143.052 45.6109 143.812C46.6424 144.573 48.0413 145 49.5 145H302.5C303.959 145 305.358 144.573 306.389 143.812C307.421 143.052 308 142.02 308 140.944V76.0556C308 74.98 307.421 73.9484 306.389 73.1878C305.358 72.4273 303.959 72 302.5 72ZM212.334 132.055L225.5 122.346L245.222 136.889H217.25L212.334 132.055ZM203.5 136.889H159.5L181.5 115.259L203.5 136.889ZM145.75 136.889H104.063L132 107.461L153.088 129.675L145.75 136.889ZM297 136.889H260.778L229.389 113.743C228.878 113.367 228.272 113.068 227.605 112.864C226.938 112.66 226.222 112.555 225.5 112.555C224.778 112.555 224.062 112.66 223.395 112.864C222.728 113.068 222.122 113.367 221.611 113.743L205.666 125.5L185.9 106.067C185.388 105.563 184.723 105.154 183.96 104.873C183.196 104.591 182.354 104.444 181.5 104.444C180.646 104.444 179.804 104.591 179.04 104.873C178.277 105.154 177.612 105.563 177.1 106.067L160.033 122.847L136.506 98.063C135.999 97.5288 135.324 97.0926 134.54 96.7915C133.756 96.4903 132.884 96.3331 132 96.3331C131.116 96.3331 130.244 96.4903 129.46 96.7915C128.676 97.0926 128.001 97.5288 127.494 98.063L90.6366 136.889H55V80.1111H297V136.889Z" fill="black"/>
<path d="M209 101.234C212.038 101.234 214.5 99.6184 214.5 97.625C214.5 95.6316 212.038 94.0156 209 94.0156C205.962 94.0156 203.5 95.6316 203.5 97.625C203.5 99.6184 205.962 101.234 209 101.234Z" fill="black"/>
<path d="M186.056 180.641H164.056C159.68 180.641 155.483 181.781 152.389 183.812C149.295 185.843 147.556 188.597 147.556 191.469C147.556 194.341 149.295 197.095 152.389 199.125C155.483 201.156 159.68 202.297 164.056 202.297H186.056C190.432 202.297 194.629 201.156 197.724 199.125C200.818 197.095 202.556 194.341 202.556 191.469C202.556 188.597 200.818 185.843 197.724 183.812C194.629 181.781 190.432 180.641 186.056 180.641ZM186.056 195.078H164.056C162.598 195.078 161.199 194.698 160.167 194.021C159.136 193.344 158.556 192.426 158.556 191.469C158.556 190.511 159.136 189.593 160.167 188.917C161.199 188.24 162.598 187.859 164.056 187.859H186.056C187.515 187.859 188.914 188.24 189.945 188.917C190.977 189.593 191.556 190.511 191.556 191.469C191.556 192.426 190.977 193.344 189.945 194.021C188.914 194.698 187.515 195.078 186.056 195.078Z" fill="black"/>
<path d="M209 158.984C210.459 158.984 211.858 158.604 212.889 157.927C213.921 157.25 214.5 156.332 214.5 155.375C214.5 154.418 213.921 153.5 212.889 152.823C211.858 152.146 210.459 151.766 209 151.766H143C141.541 151.766 140.142 152.146 139.111 152.823C138.079 153.5 137.5 154.418 137.5 155.375C137.5 156.332 138.079 157.25 139.111 157.927C140.142 158.604 141.541 158.984 143 158.984H209Z" fill="black"/>
<path d="M236.5 166.203H115.5C114.041 166.203 112.642 166.583 111.611 167.26C110.579 167.937 110 168.855 110 169.812C110 170.77 110.579 171.688 111.611 172.365C112.642 173.042 114.041 173.422 115.5 173.422H236.5C237.959 173.422 239.358 173.042 240.389 172.365C241.421 171.688 242 170.77 242 169.812C242 168.855 241.421 167.937 240.389 167.26C239.358 166.583 237.959 166.203 236.5 166.203Z" fill="black"/>
<path d="M93.5 166.203H82.5C81.0413 166.203 79.6424 166.583 78.6109 167.26C77.5795 167.937 77 168.855 77 169.812C77 170.77 77.5795 171.688 78.6109 172.365C79.6424 173.042 81.0413 173.422 82.5 173.422H93.5C94.9587 173.422 96.3576 173.042 97.3891 172.365C98.4205 171.688 99 170.77 99 169.812C99 168.855 98.4205 167.937 97.3891 167.26C96.3576 166.583 94.9587 166.203 93.5 166.203Z" fill="black"/>
<path d="M269.5 166.203H258.5C257.041 166.203 255.642 166.583 254.611 167.26C253.579 167.937 253 168.855 253 169.812C253 170.77 253.579 171.688 254.611 172.365C255.642 173.042 257.041 173.422 258.5 173.422H269.5C270.959 173.422 272.358 173.042 273.389 172.365C274.421 171.688 275 170.77 275 169.812C275 168.855 274.421 167.937 273.389 167.26C272.358 166.583 270.959 166.203 269.5 166.203Z" fill="black"/>
<rect x="10.3529" y="20.3419" width="331.294" height="30.5735" fill="white"/>
<path d="M341 258.5V27.5C340.995 23.1255 339.255 18.9316 336.162 15.8384C333.068 12.7451 328.875 11.0051 324.5 11H27.5C23.1255 11.0051 18.9316 12.7451 15.8384 15.8384C12.7451 18.9316 11.0051 23.1255 11 27.5V258.5C11.0051 262.875 12.7451 267.068 15.8384 270.162C18.9316 273.255 23.1255 274.995 27.5 275H136.507L127.341 330H104.5C103.041 330 101.642 330.579 100.611 331.611C99.5795 332.642 99 334.041 99 335.5C99 336.959 99.5795 338.358 100.611 339.389C101.642 340.421 103.041 341 104.5 341H247.5C248.959 341 250.358 340.421 251.389 339.389C252.421 338.358 253 336.959 253 335.5C253 334.041 252.421 332.642 251.389 331.611C250.358 330.579 248.959 330 247.5 330H224.659L215.493 275H262.664H271.5C274.594 278.094 295.124 294 299.5 294C303.876 294 293.906 290.594 297 287.5C300.09 284.403 304 291.874 304 287.5C304 283.126 309.59 281.597 306.5 278.5L309.333 275H324.5C328.875 274.995 333.068 273.255 336.162 270.162C339.255 267.068 340.995 262.875 341 258.5ZM221 220H229L252.171 233.394L244.393 241.175L221 220ZM210.467 209L197.5 211.5C194.546 210.77 193.132 214.548 191 212.377C188.868 210.206 185.176 215.81 184.5 212.843L178.747 212.377L207.602 219.036C210.569 219.712 213.29 221.2 215.462 223.332C217.633 225.464 207.77 211.546 208.5 214.5L210.467 212.843V209ZM243.5 208.5L247.5 214.5C246.283 209.576 248.667 208.5 243.5 208.5C247.667 208.5 215.462 208.5 210 208.5L163 209C162.091 208.79 161.144 208.815 160.247 209.072C159.35 209.329 158.534 209.81 157.874 210.47C157.215 211.13 156.734 211.946 156.476 212.843C156.219 213.74 156.144 218.881 166 210.47L172 214.5C172.91 218.449 184 211.5 181 208.738L22 209V66H330V209L243.5 208.5ZM27.5 22H324.5C325.958 22.0016 327.356 22.5816 328.387 23.6127C329.418 24.6438 329.998 26.0418 330 27.5V55H22V27.5C22.0016 26.0418 22.5816 24.6438 23.6127 23.6127C24.6438 22.5816 26.0418 22.0016 27.5 22ZM213.507 330H138.493L147.659 275H204.341L213.507 330ZM27.5 264C26.0418 263.998 24.6438 263.418 23.6127 262.387C22.5816 261.356 22.0016 259.958 22 258.5V220H199.257H210.467L251.664 264H27.5ZM300.785 288.842C300.274 289.353 299.668 289.758 299 290.035C298.333 290.311 274.222 267.778 296.896 290.453C296.173 290.453 295.458 290.311 294.791 290.035C294.123 289.758 293.517 289.353 293.006 288.842L271.5 275H297L304 288.842C305.029 289.875 295.5 286.042 295.5 287.5C295.5 288.958 301.814 287.81 300.785 288.842ZM254.333 220H330V258.5C329.998 259.958 329.418 261.356 328.387 262.387C327.356 263.418 325.958 263.998 324.5 264H298.333L254.333 220Z" fill="black"/>
<path d="M187 231H165C163.541 231 162.142 231.579 161.111 232.611C160.079 233.642 159.5 235.041 159.5 236.5C159.5 237.959 160.079 239.358 161.111 240.389C162.142 241.421 163.541 242 165 242H187C188.459 242 189.858 241.421 190.889 240.389C191.921 239.358 192.5 237.959 192.5 236.5C192.5 235.041 191.921 233.642 190.889 232.611C189.858 231.579 188.459 231 187 231Z" fill="black"/>
<path d="M38.5 44C41.5376 44 44 41.5376 44 38.5C44 35.4624 41.5376 33 38.5 33C35.4624 33 33 35.4624 33 38.5C33 41.5376 35.4624 44 38.5 44Z" fill="black"/>
<path d="M60.5 44C63.5376 44 66 41.5376 66 38.5C66 35.4624 63.5376 33 60.5 33C57.4624 33 55 35.4624 55 38.5C55 41.5376 57.4624 44 60.5 44Z" fill="black"/>
<path d="M82.5 44C85.5376 44 88 41.5376 88 38.5C88 35.4624 85.5376 33 82.5 33C79.4624 33 77 35.4624 77 38.5C77 41.5376 79.4624 44 82.5 44Z" fill="black"/>
<rect x="268" y="275" width="55" height="24" fill="white"/>
<rect x="210" y="220" width="105" height="44" fill="white"/>
</svg>
