<svg width="249" height="249" viewBox="0 0 249 249" fill="none" xmlns="http://www.w3.org/2000/svg">
<g clip-path="url(#clip0)">
<rect x="214" y="56" width="68" height="88" fill="white"/>
<path d="M201.34 241.219H47.6602C44.3078 241.215 41.0937 239.882 38.7232 237.511C36.3527 235.141 35.0193 231.927 35.0156 228.574V20.4258C35.0193 17.0734 36.3527 13.8594 38.7232 11.4888C41.0937 9.11834 44.3078 7.78496 47.6602 7.78125H201.34C204.692 7.78496 207.906 9.11834 210.277 11.4888C212.647 13.8594 213.981 17.0734 213.984 20.4258V228.574C213.981 231.927 212.647 235.141 210.277 237.511C207.906 239.882 204.692 241.215 201.34 241.219V241.219ZM47.6602 15.5625C46.3708 15.564 45.1347 16.0769 44.223 16.9886C43.3113 17.9003 42.7984 19.1364 42.7969 20.4258V228.574C42.7984 229.864 43.3113 231.1 44.223 232.011C45.1347 232.923 46.3708 233.436 47.6602 233.438H201.34C202.629 233.436 203.865 232.923 204.777 232.011C205.689 231.1 206.202 229.864 206.203 228.574V20.4258C206.202 19.1364 205.689 17.9003 204.777 16.9886C203.865 16.0769 202.629 15.564 201.34 15.5625H47.6602Z" fill="black"/>
<path d="M194.531 210.094H54.4688C53.4369 210.094 52.4473 209.684 51.7177 208.954C50.9881 208.225 50.5782 207.235 50.5781 206.203V27.2344C50.5782 26.2025 50.9881 25.213 51.7177 24.4833C52.4473 23.7537 53.4369 23.3438 54.4688 23.3438H194.531C195.563 23.3438 196.553 23.7537 197.282 24.4833C198.012 25.213 198.422 26.2025 198.422 27.2344V206.203C198.422 207.235 198.012 208.225 197.282 208.954C196.553 209.684 195.563 210.094 194.531 210.094ZM58.3594 202.312H190.641V31.125H58.3594V202.312Z" fill="black"/>
<path d="M124.5 225.656C126.649 225.656 128.391 223.914 128.391 221.766C128.391 219.617 126.649 217.875 124.5 217.875C122.351 217.875 120.609 219.617 120.609 221.766C120.609 223.914 122.351 225.656 124.5 225.656Z" fill="black"/>
<path fill-rule="evenodd" clip-rule="evenodd" d="M91.1214 40.144C91.1214 38.4116 92.533 37 94.2653 37C95.9976 37 97.4093 38.4116 97.4093 40.144C97.4093 41.8794 95.9976 43.2879 94.2653 43.2879C92.533 43.2879 91.1214 41.8794 91.1214 40.144ZM71 40.144C71 38.4076 72.4076 37 74.144 37H80.1175C81.9253 37 83.3787 38.5324 83.2539 40.3628C83.1404 42.0303 81.6778 43.2879 80.0062 43.2879H77.2879V70.924C78.6511 71.4625 79.8679 72.3495 80.8136 73.5313L103.799 102.264L113.2 93.4762C118.538 88.4871 126.899 88.4868 132.237 93.4766L171.607 130.279V43.2879H108.419H108.413C106.611 43.2879 105.156 41.7637 105.276 39.933C105.372 38.4676 106.509 37.3168 107.917 37.0558H175.343C176.796 37.3329 177.895 38.6101 177.895 40.144V81.0155H178V87.3034H177.895V136.978C177.895 138.714 176.487 140.122 174.751 140.122H74.144C72.4076 140.122 71 138.714 71 136.978V40.144ZM77.2879 133.834H166.201L127.942 98.0699C125.013 95.3312 120.423 95.3312 117.494 98.0699L107.739 107.189L113.512 114.405C116.116 117.659 111.206 121.587 108.602 118.333L77.2879 79.1901V133.834ZM131.364 70.326C131.364 60.9648 138.98 53.3486 148.341 53.3486C157.703 53.3486 165.319 60.9648 165.319 70.326C165.319 79.6871 157.703 87.3034 148.341 87.3034C138.98 87.3034 131.364 79.6871 131.364 70.326ZM137.652 70.326C137.652 76.2203 142.447 81.0155 148.341 81.0155C154.236 81.0155 159.031 76.2203 159.031 70.326C159.031 64.4317 154.236 59.6365 148.341 59.6365C142.447 59.6365 137.652 64.4317 137.652 70.326Z" fill="black"/>
<path d="M164.417 148H85.5833C84.633 148 83.7215 148.369 83.0495 149.025C82.3775 149.682 82 150.572 82 151.5C82 152.428 82.3775 153.318 83.0495 153.975C83.7215 154.631 84.633 155 85.5833 155H164.417C165.367 155 166.278 154.631 166.95 153.975C167.622 153.318 168 152.428 168 151.5C168 150.572 167.622 149.682 166.95 149.025C166.278 148.369 165.367 148 164.417 148Z" fill="black"/>
<path d="M152.458 163H96.5417C95.8676 163 95.2211 163.369 94.7444 164.025C94.2678 164.682 94 165.572 94 166.5C94 167.428 94.2678 168.318 94.7444 168.975C95.2211 169.631 95.8676 170 96.5417 170H152.458C153.132 170 153.779 169.631 154.256 168.975C154.732 168.318 155 167.428 155 166.5C155 165.572 154.732 164.682 154.256 164.025C153.779 163.369 153.132 163 152.458 163Z" fill="black"/>
<path d="M82.5 163H71.5C70.0413 163 68.6424 163.38 67.6109 164.057C66.5795 164.734 66 165.652 66 166.609C66 167.567 66.5795 168.485 67.6109 169.162C68.6424 169.838 70.0413 170.219 71.5 170.219H82.5C83.9587 170.219 85.3576 169.838 86.3891 169.162C87.4205 168.485 88 167.567 88 166.609C88 165.652 87.4205 164.734 86.3891 164.057C85.3576 163.38 83.9587 163 82.5 163Z" fill="black"/>
<path d="M177.5 163H166.5C165.041 163 163.642 163.38 162.611 164.057C161.579 164.734 161 165.652 161 166.609C161 167.567 161.579 168.485 162.611 169.162C163.642 169.838 165.041 170.219 166.5 170.219H177.5C178.959 170.219 180.358 169.838 181.389 169.162C182.421 168.485 183 167.567 183 166.609C183 165.652 182.421 164.734 181.389 164.057C180.358 163.38 178.959 163 177.5 163Z" fill="black"/>
<path d="M135.5 175H113.5C109.124 175 104.927 176.141 101.833 178.171C98.7383 180.202 97 182.956 97 185.828C97 188.7 98.7383 191.454 101.833 193.485C104.927 195.515 109.124 196.656 113.5 196.656H135.5C139.876 196.656 144.073 195.515 147.167 193.485C150.262 191.454 152 188.7 152 185.828C152 182.956 150.262 180.202 147.167 178.171C144.073 176.141 139.876 175 135.5 175ZM135.5 189.438H113.5C112.041 189.438 110.642 189.057 109.611 188.38C108.579 187.703 108 186.785 108 185.828C108 184.871 108.579 183.953 109.611 183.276C110.642 182.599 112.041 182.219 113.5 182.219H135.5C136.959 182.219 138.358 182.599 139.389 183.276C140.42 183.953 141 184.871 141 185.828C141 186.785 140.42 187.703 139.389 188.38C138.358 189.057 136.959 189.438 135.5 189.438Z" fill="black"/>
</g>
<defs>
<clipPath id="clip0">
<rect width="249" height="249" fill="white"/>
</clipPath>
</defs>
</svg>
