<svg viewBox="0 0 27 28" fill="none" xmlns="http://www.w3.org/2000/svg">
<path d="M13.5234 0C10.7486 0 8.26957 1.65651 7.20817 4.22021L5.52263 8.28983H4.25166C1.9072 8.28983 0 10.197 0 12.5415V22.8087C0 25.1531 1.9072 27.0603 4.25166 27.0603H17.7279C20.74 27.0603 23.5148 25.2992 24.7969 22.5734L25.9143 20.1969C27.181 17.5041 26.9851 14.3964 25.3902 11.8838C24.2124 10.0283 22.4162 8.72498 20.3584 8.17009V6.83562C20.359 3.06628 17.2927 0 13.5234 0V0ZM21.561 14.3141C22.3303 15.5261 22.4213 16.9664 21.8102 18.2658L20.6928 20.6423C20.1552 21.7854 18.9916 22.5238 17.7285 22.5238H4.53621V12.8251H7.03822C7.95569 12.8251 8.78274 12.2724 9.13351 11.4251L11.3991 5.95535C11.7562 5.09292 12.5899 4.53591 13.5234 4.53591C14.7913 4.53591 15.8228 5.56738 15.8228 6.83532V10.1387C15.8228 11.3912 16.8382 12.4066 18.0907 12.4066C19.5268 12.4066 20.7917 13.1021 21.561 14.3141V14.3141Z" fill="black"/>
</svg>
