<svg  viewBox="0 0 105 140" fill="none" xmlns="http://www.w3.org/2000/svg">
<path d="M46 93.5H23V107V117L29.5 129.5L36 136L40.5 137.5H46V93.5Z" fill="#002E73" stroke="black"/>
<path d="M15.5 92.5L17.5 79.5L22 69L26 62.5L34.5 56.5L33 69L34.5 79.5L38.5 89.5L40 92.5H15.5Z" fill="#035AA6" stroke="black"/>
<path d="M40.5 93.5C33.3603 78.4927 31.8979 70.4942 34 57C44.1302 51.4506 49.9591 50.7968 60.5 52L76.5 57C80.9292 56.1756 83.2441 55.2255 86.5 51L86.5296 50.9139C88.2767 45.8347 89.2654 42.9604 89.5 37C93.7931 33.4906 95.5 29 97.5 25C99.5 21 100.5 42.5 100.5 42.5L99 64.5L93.5 78.5C90.854 82.7228 88.9501 84.854 83.5 87.5L72 93.5H40.5Z" fill="#002E73"/>
<path d="M86.5 51C83.2441 55.2255 80.9292 56.1756 76.5 57L60.5 52C49.9591 50.7968 44.1302 51.4506 34 57C31.8979 70.4942 33.3603 78.4927 40.5 93.5H72L83.5 87.5C88.9501 84.854 90.854 82.7228 93.5 78.5L99 64.5L100.5 42.5C100.5 42.5 99.5 21 97.5 25C95.5 29 93.7931 33.4906 89.5 37C89.2654 42.9604 88.2767 45.8347 86.5296 50.9139M86.5 51L86.5296 50.9139M86.5 51C86.5099 50.9712 86.5198 50.9425 86.5296 50.9139" stroke="black"/>
<path d="M49 9.5L48 17.5L52.5 18.5L79 22.5L82 16L83 6L79 4.5L60 2.5L46.5 2V4.5L49 9.5Z" fill="#FCBF1E" stroke="black"/>
<path d="M48 18C41.0708 22.2183 39.1964 25.3878 37 31.5C51.2354 27.6442 57.2304 28.245 71.5 30C71.5 30 78.5 26 78.5 23.5C78.5 21 59.2379 18.8754 48 18Z" fill="#FCBF1E" stroke="black"/>
<path d="M36.3188 38.3689C36.6692 28.9746 37.8889 24.1163 47.5418 18.437C50.0535 8.90739 49.4832 5.25351 42.6037 3.4881C24.8423 8.989 29.9659 39.326 36.3188 38.3689Z" fill="#1AC3E8"/>
<path d="M59 51.5C46.1088 51.4611 41.4053 52.8195 34.9721 56.3076M59 51.5C62.8942 36.6288 64.3459 36.8786 72.2322 30.3961M59 51.5C68 54 68.5 55 73 56C86.5865 59.0192 88 48 89.7399 36.874C94.82 34.3675 95.657 27.228 96.4737 18.9251M34.9721 56.3076C22.0124 63.3344 17.4644 72.7514 15.2198 93.1815M34.9721 56.3076C31.0525 71.8924 32.6645 79.8812 40.3591 93.1815M0 93.1815H23.3003M104.5 93.1815H63.2538M40.3591 93.1815H46.195M40.3591 93.1815H23.3003M63.2538 93.1815C76.1468 92.4118 85.7726 89.5239 93.3312 78.7309C100.89 67.9379 100.065 52.8195 100.065 52.8195C100.159 38.1612 100.065 35.3689 96.4737 18.9251M63.2538 93.1815V106.636C63.5004 119.131 57.7043 127.108 46.195 127.066M63.2538 93.1815H46.195M46.195 127.066V93.1815M46.195 127.066V137.53C32.0943 141.304 24.3256 121.321 23.3003 114.608C22.275 107.895 21.9433 104.109 23.3003 93.1815M96.4737 18.9251C93.6107 10.7972 90.7568 9.12759 83.5 5.50002M83.5 5.50002C82.7472 12.3567 82.1732 16.9731 78.9659 22.9217M83.5 5.50002C71.5 2.50001 61.5 2 51.5 2C50 2 46.5 2.28138 42.6037 3.4881M78.9659 22.9217C67.0077 19.4607 60.1336 18.4592 47.5418 18.437M78.9659 22.9217C76.7391 28.1044 75.2681 29.7597 72.2322 30.3961M47.5418 18.437C37.8889 24.1163 36.6692 28.9746 36.3188 38.3689M47.5418 18.437C50.0535 8.90739 49.4832 5.25351 42.6037 3.4881M36.3188 38.3689C29.9659 39.326 24.8423 8.989 42.6037 3.4881M36.3188 38.3689C38.0895 28.761 45.9078 26.9665 72.2322 30.3961" stroke="black" stroke-width="3"/>
<path d="M89.9391 20.6611C89.9391 22.318 88.8198 23.6611 87.4391 23.6611C86.0584 23.6611 84.9391 22.318 84.9391 20.6611C84.9391 19.0043 86.0584 17.6611 87.4391 17.6611C88.8198 17.6611 89.9391 19.0043 89.9391 20.6611Z" fill="black"/>
<path d="M46.5 93.5H63V109L61.5 117.5L58 123.5L46.5 127V93.5Z" fill="#010D4D" stroke="black"/>
</svg>
