<svg viewBox="0 0 105 140" fill="none" xmlns="http://www.w3.org/2000/svg">
<path d="M36.3188 38.3689C36.6692 28.9746 37.8889 24.1163 47.5418 18.437C50.0535 8.90739 49.4832 5.25351 42.6037 3.4881C24.8423 8.989 29.9659 39.326 36.3188 38.3689Z" fill="#FCBF1E"/>
<path d="M59 51.5C46.1088 51.4611 41.4053 52.8195 34.9721 56.3076M59 51.5C62.8942 36.6288 64.3459 36.8786 72.2322 30.3961M59 51.5C68 54 68.5 55 73 56C86.5865 59.0192 88 48 89.7399 36.874C94.82 34.3675 95.657 27.228 96.4737 18.9251M34.9721 56.3076C22.0124 63.3344 17.4644 72.7514 15.2198 93.1815M34.9721 56.3076C31.0525 71.8924 32.6645 79.8812 40.3591 93.1815M0 93.1815H23.3003M104.5 93.1815H63.2538M40.3591 93.1815H46.195M40.3591 93.1815H23.3003M63.2538 93.1815C76.1468 92.4118 85.7726 89.5239 93.3312 78.7309C100.89 67.9379 100.065 52.8195 100.065 52.8195C100.159 38.1612 100.065 35.3689 96.4737 18.9251M63.2538 93.1815V106.636C63.5004 119.131 57.7043 127.108 46.195 127.066M63.2538 93.1815H46.195M46.195 127.066V93.1815M46.195 127.066V137.53C32.0943 141.304 24.3256 121.321 23.3003 114.608C22.275 107.895 21.9433 104.109 23.3003 93.1815M96.4737 18.9251C93.6107 10.7972 90.7568 9.12759 83.5 5.50002M83.5 5.50002C82.7472 12.3567 82.1732 16.9731 78.9659 22.9217M83.5 5.50002C71.5 2.50001 64.5 2 54.5 2M78.9659 22.9217C67.0077 19.4607 60.1336 18.4592 47.5418 18.437M78.9659 22.9217C76.7391 28.1044 75.2681 29.7597 72.2322 30.3961M47.5418 18.437C37.8889 24.1163 36.6692 28.9746 36.3188 38.3689M47.5418 18.437C50.0535 8.90739 49.4832 5.25351 42.6037 3.4881M36.3188 38.3689C29.9659 39.326 24.8423 8.989 42.6037 3.4881M36.3188 38.3689C38.0895 28.761 45.9078 26.9665 72.2322 30.3961M42.6037 3.4881C46.5 2.28138 50 2 51.5 2" stroke="black" stroke-width="3"/>
<path d="M89 21C89 22.6569 87.8807 24 86.5 24C85.1193 24 84 22.6569 84 21C84 19.3431 85.1193 18 86.5 18C87.8807 18 89 19.3431 89 21Z" fill="black"/>
</svg>
