<svg id="Capa_1" enable-background="new 0 0 508 508" height="512" viewBox="0 0 508 508" width="512" xmlns="http://www.w3.org/2000/svg"><g><path d="m264 498c0 5.51-4.49 10-10 10s-10-4.49-10-10 4.49-10 10-10 10 4.49 10 10zm-72-71c0-11.028 8.972-20 20-20h84c11.028 0 20 8.972 20 20v20c0 11.028-8.972 20-20 20h-84c-11.028 0-20-8.972-20-20zm20 20h84v-20h-84zm94-60c5.522 0 10-4.478 10-10s-4.478-10-10-10h-104c-5.523 0-10 4.478-10 10s4.477 10 10 10zm-132-110c0 16.542-13.458 30-30 30s-30-13.458-30-30 13.458-30 30-30 30 13.458 30 30zm-20 0c0-5.514-4.486-10-10-10s-10 4.486-10 10 4.486 10 10 10 10-4.486 10-10zm130 0c0 16.542-13.458 30-30 30s-30-13.458-30-30 13.458-30 30-30 30 13.458 30 30zm-20 0c0-5.514-4.486-10-10-10s-10 4.486-10 10 4.486 10 10 10 10-4.486 10-10zm130 0c0 16.542-13.458 30-30 30s-30-13.458-30-30 13.458-30 30-30 30 13.458 30 30zm-20 0c0-5.514-4.486-10-10-10s-10 4.486-10 10 4.486 10 10 10 10-4.486 10-10zm-237.929-145.071c-3.905-3.904-10.237-3.904-14.143 0l-15 15c-3.905 3.905-3.905 10.237 0 14.143l15 15c3.903 3.903 10.239 3.903 14.143 0 3.905-3.905 3.905-10.237 0-14.143l-7.929-7.929 7.929-7.929c3.905-3.905 3.905-10.237 0-14.142zm265 15-15-15c-3.906-3.904-10.236-3.904-14.143 0-3.905 3.905-3.905 10.237 0 14.143l7.929 7.929-7.929 7.929c-3.905 3.905-3.905 10.237 0 14.143 3.903 3.903 10.239 3.903 14.143 0l15-15c3.906-3.907 3.906-10.239 0-14.144zm-327.071 361.071c-5.523 0-10-4.477-10-10v-468c0-16.569 13.431-30 30-30h320c16.569 0 30 13.431 30 30v468c0 5.523-4.477 10-10 10h-134.98c-.01 0-.01 0-.02 0-5.739 0-10.373-4.872-9.976-10.694.361-5.306 5.016-9.306 10.334-9.306h124.642v-141h-340v141h124.642c5.318 0 9.973 4 10.335 9.306.396 5.822-4.238 10.694-9.977 10.694zm350-301v-107h-84.153c2.647 5.094 4.153 10.873 4.153 17 0 20.402-16.598 37-37 37s-37-16.598-37-37c0-6.127 1.506-11.906 4.153-17h-190.153v107h80.374l45.476-53.532c13.15-14.936 34.489-13.242 45.728 0l45.475 53.532zm-183.666-40.583c-3.931-4.707-11.286-4.707-15.243 0l-34.475 40.583h84.194zm66.666-66.417c-9.374 0-17 7.626-17 17s7.626 17 17 17 17-7.626 17-17-7.626-17-17-17zm-223-20h340v-50c0-5.514-4.486-10-10-10h-320c-5.514 0-10 4.486-10 10zm340 247v-100h-340v100zm-299.955-277c0 5.523-4.477 10-10 10s-10-4.477-10-10 4.477-10 10-10 10 4.477 10 10zm45 0c0 5.523-4.477 10-10 10s-10-4.477-10-10 4.477-10 10-10 10 4.477 10 10zm45 0c0 5.523-4.477 10-10 10s-10-4.477-10-10 4.477-10 10-10 10 4.477 10 10z"/></g></svg>