<svg fill='#fff' id="Capa_1" enable-background="new 0 0 508 508" height="512" viewBox="0 0 508 508" width="512" xmlns="http://www.w3.org/2000/svg"><g><path d="m263.99 498c0 5.51-4.48 10-10 10-5.511 0-10-4.49-10-10s4.489-10 10-10c5.52 0 10 4.49 10 10zm-99.99-60v-22c0-16.542 13.458-30 30-30h120c16.542 0 30 13.458 30 30v22c0 16.542-13.458 30-30 30h-120c-16.542 0-30-13.458-30-30zm20 0c0 5.514 4.486 10 10 10h120c5.514 0 10-4.486 10-10v-22c0-5.514-4.486-10-10-10h-120c-5.514 0-10 4.486-10 10zm140-122c0-5.522-4.478-10-10-10h-120c-5.522 0-10 4.478-10 10s4.478 10 10 10h120c5.522 0 10-4.478 10-10zm-130 30c-5.522 0-10 4.478-10 10s4.478 10 10 10h75c5.522 0 10-4.478 10-10s-4.478-10-10-10zm115-60h-110c-27.57 0-50-22.43-50-50v-106c0-27.57 22.43-50 50-50h110c27.57 0 50 22.43 50 50v106c0 27.57-22.43 50-50 50zm-30-156c0 16.542 13.458 30 30 30s30-13.458 30-30-13.458-30-30-30-30 13.458-30 30zm-110 0v48.804l7.923-7.406c19.164-17.912 49.172-17.899 68.32.028l87.92 82.328c3.665-4.975 5.837-11.115 5.837-17.754v-66.027c-8.363 6.292-18.753 10.027-30 10.027-27.57 0-50-22.43-50-50 0-11.247 3.735-21.637 10.027-30h-70.027c-16.542 0-30 13.458-30 30zm140 136c2.436 0 4.803-.299 7.072-.85l-84.499-79.125c-11.488-10.758-29.494-10.766-40.992-.018l-21.581 20.174v29.819c0 16.542 13.458 30 30 30zm-160 242c-22.091 0-40-17.909-40-40v-428c0-22.091 17.909-40 40-40h210c22.091 0 40 17.909 40 40v428c0 22.091-17.909 40-40 40h-60.01c-5.741 0-10.373-4.872-9.976-10.694.361-5.306 5.016-9.306 10.334-9.306h59.652c11.01-.021 19.979-8.99 20-20 0-.01 0-.01 0-.021v-427.979c0-11.046-8.954-20-20-20h-20.614c-7.444.189-13.892 5.293-15.689 12.43-4.087 16.232-18.689 27.57-35.511 27.57h-66.371c-16.822 0-31.425-11.338-35.512-27.571-1.797-7.136-8.244-12.24-15.689-12.429h-20.614c-11.046 0-20 8.954-20 20v428c.02 11.01 8.99 19.979 20 20h59.637c5.317 0 9.968 3.999 10.33 9.304.397 5.823-4.226 10.696-9.976 10.696zm157.139-488h-104.278c1.206 2.369 2.168 4.892 2.836 7.545 1.846 7.334 8.474 12.455 16.117 12.455h66.371c7.644 0 14.271-5.121 16.117-12.454.669-2.653 1.631-5.176 2.837-7.546z"/></g></svg>