<svg id="Capa_1" enable-background="new 0 0 512 512" height="512" viewBox="0 0 512 512" width="512" xmlns="http://www.w3.org/2000/svg"><g><g><path d="m339.04 65.864c5.523 0 10-4.477 10-10s-4.477-10-10-10h-.057c-5.523 0-9.971 4.477-9.971 10s4.505 10 10.028 10z"/><path d="m386.037 65.864c5.523 0 10-4.477 10-10s-4.477-10-10-10h-.028c-5.523 0-9.986 4.477-9.986 10s4.491 10 10.014 10z"/><path d="m292.042 65.864c5.523 0 10-4.477 10-10s-4.477-10-10-10h-.057c-5.523 0-9.972 4.477-9.972 10s4.506 10 10.029 10z"/><path d="m62.497 65.864h130.873c5.523 0 10-4.477 10-10s-4.477-10-10-10h-130.873c-5.523 0-10 4.477-10 10s4.477 10 10 10z"/><path d="m142.545 291.979h126.479c5.523 0 10-4.477 10-10s-4.477-10-10-10h-126.479c-5.523 0-10 4.477-10 10s4.477 10 10 10z"/><path d="m62.44 291.979h30.104c5.523 0 10-4.477 10-10s-4.477-10-10-10h-30.104c-5.523 0-10 4.477-10 10s4.477 10 10 10z"/><path d="m269.025 314.81h-69.476c-5.523 0-10 4.477-10 10s4.477 10 10 10h69.476c5.523 0 10-4.477 10-10s-4.477-10-10-10z"/><path d="m149.547 314.81h-87.107c-5.523 0-10 4.477-10 10s4.477 10 10 10h87.107c5.523 0 10-4.477 10-10s-4.477-10-10-10z"/><path d="m512 451.714c0-.008-.001-.016-.001-.025l-.027-265.605c0-26.552-19.491-48.154-43.448-48.154h-19.961v-108.711c-.001-16.112-13.121-29.219-29.248-29.219h-390.096c-16.112 0-29.219 13.107-29.219 29.219v322.548c0 16.126 13.107 29.247 29.219 29.247h262.007v82.833c0 26.552 19.503 48.153 43.477 48.153h133.821c23.973 0 43.476-21.602 43.476-48.154l-.001-12.107c0-.009.001-.016.001-.025zm-143.742-293.783h66.682v24.922c0 .315-.287.602-.601.602h-65.479c-.304 0-.602-.298-.602-.602zm-339.039-137.931h390.096c5.099 0 9.247 4.136 9.247 9.219v62.509h-408.562v-62.509c0-5.083 4.135-9.219 9.219-9.219zm0 341.014c-5.083 0-9.219-4.148-9.219-9.247v-240.04h408.562v26.204h-93.888-270.306c-5.523 0-10 4.477-10 10v91.217c0 5.523 4.477 10 10 10h226.858v111.865h-262.007zm262.007-174.929v43.063h-216.858v-71.217h225.091c-5.173 7.925-8.233 17.648-8.233 28.154zm177.297 305.915h-133.82c-12.945 0-23.477-12.629-23.477-28.153v-2.132h45.416c5.523 0 10-4.477 10-10s-4.477-10-10-10h-45.416v-255.63c0-15.524 10.519-28.154 23.448-28.154h13.584v24.922c0 11.36 9.242 20.602 20.602 20.602h65.479c11.359 0 20.601-9.242 20.601-20.602v-24.922h13.584c12.929 0 23.448 12.63 23.448 28.155l.026 255.628h-45.528c-5.523 0-10 4.477-10 10s4.477 10 10 10h45.53v2.132c0 15.261-10.751 28.154-23.477 28.154z"/><path d="m347.515 317.774h108.168c5.523 0 10-4.477 10-10v-58.903c0-5.523-4.477-10-10-10h-108.168c-5.523 0-10 4.477-10 10v58.903c0 5.523 4.477 10 10 10zm10-58.903h88.168v38.903h-88.168z"/><path d="m455.683 342.05h-41.13c-5.523 0-10 4.477-10 10s4.477 10 10 10h41.13c5.523 0 10-4.477 10-10s-4.477-10-10-10z"/><path d="m347.515 362.05h17.036c5.523 0 10-4.477 10-10s-4.477-10-10-10h-17.036c-5.523 0-10 4.477-10 10s4.477 10 10 10z"/><path d="m465.683 396.298c0-5.523-4.477-10-10-10h-108.168c-5.523 0-10 4.477-10 10s4.477 10 10 10h108.168c5.523 0 10-4.477 10-10z"/><path d="m401.57 441.714c-5.523 0-10 4.477-10 10s4.477 10 10 10h.028c5.523 0 9.986-4.477 9.986-10s-4.491-10-10.014-10z"/></g></g></svg>