<svg id="Capa_1" enable-background="new 0 0 508 508" height="512" viewBox="0 0 508 508" width="512" xmlns="http://www.w3.org/2000/svg"><g><path d="m0 318c0-5.51 4.49-10 10-10s10 4.49 10 10-4.49 10-10 10-10-4.49-10-10zm60-222.5c0 5.523-4.477 10-10 10s-10-4.477-10-10 4.477-10 10-10 10 4.477 10 10zm45 0c0 5.523-4.477 10-10 10s-10-4.477-10-10 4.477-10 10-10 10 4.477 10 10zm45 0c0 5.523-4.477 10-10 10s-10-4.477-10-10 4.477-10 10-10 10 4.477 10 10zm358 95v262c0 5.523-4.478 10-10 10h-410c-5.523 0-10-4.477-10-10v-31h-68c-5.613 0-10-4.581-10-10v-48.5c0-5.51 4.49-10 10-10s10 4.49 10 10v38.5h58v-211c0-5.523 4.477-10 10-10h322v-35h-390v127.5c0 5.51-4.49 10-10 10s-10-4.49-10-10v-197.5c0-16.542 13.458-30 30-30h370c16.542 0 30 13.458 30 30v105h68c5.522 0 10 4.477 10 10zm-488-65h390v-50c0-5.514-4.486-10-10-10h-370c-5.514 0-10 4.486-10 10zm468 75h-390v242h390zm-197 72v130c0 11.028-8.972 20-20 20h-100c-11.028 0-20-8.972-20-20v-130c0-5.523 4.477-10 10-10h25v-7c0-19.299 15.701-35 35-35s35 15.701 35 35v7h25c5.522 0 10 4.477 10 10zm-85-10h30v-7c0-8.271-6.729-15-15-15s-15 6.729-15 15zm65 20h-15v18c0 5.523-4.477 10-10 10s-10-4.477-10-10v-18h-30v18c0 5.523-4.477 10-10 10s-10-4.477-10-10v-18h-15v120h100zm50 3h52c5.522 0 10-4.477 10-10s-4.478-10-10-10h-52c-5.522 0-10 4.477-10 10s4.478 10 10 10zm104 28h-104c-5.522 0-10 4.477-10 10s4.478 10 10 10h104c5.522 0 10-4.477 10-10s-4.478-10-10-10zm10 68v20c0 11.028-8.972 20-20 20h-84c-11.028 0-20-8.972-20-20v-20c0-11.028 8.972-20 20-20h84c11.028 0 20 8.972 20 20zm-20 0h-84v20h84zm1.929-143.929 9.929 9.929-9.929 9.929c-3.905 3.905-3.882 10.215 0 14.143 4.329 4.38 10.845 3.477 14.143 0l9.929-9.929 9.929 9.929c3.555 3.477 9.41 4.396 14.143 0 4.046-3.759 3.905-10.237 0-14.143l-9.929-9.929 9.929-9.929c3.905-3.905 3.905-10.237 0-14.143-3.906-3.905-10.236-3.905-14.143 0l-9.93 9.929-9.929-9.929c-3.906-3.905-10.236-3.905-14.143 0-3.905 3.906-3.905 10.238.001 14.143z"/></g></svg>