<svg width="306" height="306" viewBox="0 0 306 306" fill="none" xmlns="http://www.w3.org/2000/svg">
<g clip-path="url(#clip0)">
<path d="M250 81H6.5V41L19.5 32.5H239.5L256 50L250 81Z" fill="#0367BD" stroke="black"/>
<rect x="7" y="81" width="244" height="166" fill="white"/>
<path d="M0 191.551C0 188.232 2.70461 185.528 6.02362 185.528C9.34264 185.528 12.0472 188.232 12.0472 191.551C12.0472 194.87 9.34264 197.575 6.02362 197.575C2.70461 197.575 0 194.87 0 191.551ZM36.1417 57.5256C36.1417 60.8524 33.445 63.5492 30.1181 63.5492C26.7913 63.5492 24.0945 60.8524 24.0945 57.5256C24.0945 54.1987 26.7913 51.502 30.1181 51.502C33.445 51.502 36.1417 54.1987 36.1417 57.5256ZM63.248 57.5256C63.248 60.8524 60.5513 63.5492 57.2244 63.5492C53.8976 63.5492 51.2008 60.8524 51.2008 57.5256C51.2008 54.1987 53.8976 51.502 57.2244 51.502C60.5513 51.502 63.248 54.1987 63.248 57.5256ZM90.3543 57.5256C90.3543 60.8524 87.6576 63.5492 84.3307 63.5492C81.0039 63.5492 78.3071 60.8524 78.3071 57.5256C78.3071 54.1987 81.0039 51.502 84.3307 51.502C87.6576 51.502 90.3543 54.1987 90.3543 57.5256ZM306 114.75V272.569C306 275.896 303.303 278.593 299.976 278.593H53.0079C49.681 278.593 46.9843 275.896 46.9843 272.569V253.896H6.02362C2.64256 253.896 0 251.136 0 247.872V218.657C0 215.338 2.70461 212.634 6.02362 212.634C9.34264 212.634 12.0472 215.338 12.0472 218.657V241.848H46.9843V114.75C46.9843 111.423 49.681 108.726 53.0079 108.726H246.969V87.6437H12.0472V164.445C12.0472 167.764 9.34264 170.469 6.02362 170.469C2.70461 170.469 0 167.764 0 164.445V45.4783C0 35.5141 8.10659 27.4075 18.0709 27.4075H240.945C250.909 27.4075 259.016 35.5141 259.016 45.4783V108.726H299.976C303.303 108.726 306 111.423 306 114.75ZM12.0472 75.5965H246.969V45.4783C246.969 42.1569 244.266 39.4547 240.945 39.4547H18.0709C14.7494 39.4547 12.0472 42.1569 12.0472 45.4783V75.5965ZM293.953 120.774H59.0315V266.545H293.953V120.774ZM175.287 164.144V242.451C175.287 249.094 169.883 254.498 163.24 254.498H103.004C96.3611 254.498 90.9567 249.094 90.9567 242.451V164.144C90.9567 160.817 93.6535 158.12 96.9803 158.12H112.039V153.904C112.039 142.279 121.497 132.821 133.122 132.821C144.747 132.821 154.205 142.279 154.205 153.904V158.12H169.264C172.59 158.12 175.287 160.817 175.287 164.144ZM124.087 158.12H142.157V153.904C142.157 148.921 138.104 144.868 133.122 144.868C128.14 144.868 124.087 148.921 124.087 153.904V158.12ZM163.24 170.167H154.205V181.01C154.205 184.337 151.508 187.033 148.181 187.033C144.854 187.033 142.157 184.337 142.157 181.01V170.167H124.087V181.01C124.087 184.337 121.39 187.033 118.063 187.033C114.736 187.033 112.039 184.337 112.039 181.01V170.167H103.004V242.451H163.24V170.167ZM193.358 171.974H224.681C228.007 171.974 230.705 169.278 230.705 165.951C230.705 162.624 228.007 159.927 224.681 159.927H193.358C190.032 159.927 187.335 162.624 187.335 165.951C187.335 169.278 190.032 171.974 193.358 171.974ZM256.004 188.841H193.358C190.032 188.841 187.335 191.537 187.335 194.864C187.335 198.191 190.032 200.888 193.358 200.888H256.004C259.33 200.888 262.028 198.191 262.028 194.864C262.028 191.537 259.33 188.841 256.004 188.841ZM262.028 229.801V241.848C262.028 248.491 256.623 253.896 249.98 253.896H199.382C192.739 253.896 187.335 248.491 187.335 241.848V229.801C187.335 223.158 192.739 217.754 199.382 217.754H249.98C256.623 217.754 262.028 223.158 262.028 229.801ZM249.98 229.801H199.382V241.848H249.98V229.801ZM251.142 143.104L257.123 149.085L251.142 155.065C248.79 157.418 248.804 161.219 251.142 163.585C253.75 166.223 257.675 165.679 259.661 163.585L265.642 157.604L271.623 163.585C273.765 165.679 277.291 166.233 280.142 163.585C282.58 161.32 282.495 157.418 280.142 155.065L274.162 149.085L280.142 143.104C282.495 140.752 282.495 136.937 280.142 134.585C277.79 132.232 273.977 132.232 271.623 134.585L265.642 140.565L259.661 134.585C257.308 132.232 253.495 132.232 251.142 134.585C248.789 136.937 248.789 140.752 251.142 143.104V143.104Z" fill="#120136"/>
<rect x="46" y="108" width="251" height="162" rx="6" fill="#E9ECF5"/>
<path d="M58.5 115H84.0952H96V141.758V153.155C77.3777 166.39 66.5933 168.79 46 153.155V124.91V121.5C46 118.5 46.5616 115.436 53.1429 115H58.5Z" fill="#E2E1E4"/>
<path d="M108.5 115H134.095H146V141.758V153.155C127.378 166.39 116.593 168.79 96 153.155V124.91V121.5C96 118.5 96.5616 115.436 103.143 115H108.5Z" fill="#E2E2E4"/>
<path d="M258.5 115H284.095H296V141.758V153.155C277.378 166.39 266.593 168.79 246 153.155V124.91V121.5C246 118.5 246.562 115.436 253.143 115H258.5Z" fill="#E2E2E4"/>
<path d="M158.5 115H184.095H196V141.758V153.155C177.378 166.39 166.593 168.79 146 153.155V124.91V121.5C146 118.5 146.562 115.436 153.143 115H158.5Z" fill="#E2E2E4"/>
<path d="M208.5 115H234.095H246V141.758V153.155C227.378 166.39 216.593 168.79 196 153.155V124.91V121.5C196 118.5 196.562 115.436 203.143 115H208.5Z" fill="#E2E2E4"/>
<path d="M58.5 108H84.0952H96V134.758V146.155C77.3777 159.39 66.5933 161.79 46 146.155V117.91V114.5C46 111.5 46.5616 108.436 53.1429 108H58.5Z" fill="#FCBF1E"/>
<path d="M233.5 108H207.905H196V134.758V146.155C214.622 159.39 225.407 161.79 246 146.155V117.91V108H233.5Z" fill="#1AC3E8"/>
<path d="M133.5 108H107.905H96V134.758V146.155C114.622 159.39 125.407 161.79 146 146.155V117.91V108H133.5Z" fill="#1AC3E8"/>
<path d="M183.5 108H157.905H146V134.758V146.155C164.622 159.39 175.407 161.79 196 146.155V117.91V108H183.5Z" fill="#FCBF1E"/>
<path d="M70.4474 180C65.6811 180 73.8195 180 78.5 180C81.019 179.95 81.4955 180.864 82.3402 182.5L84.8402 189.5M84.8402 189.5L93.9474 215H81.4474H127.447V215C130.895 215 139.5 189.5 134 189.5C128.5 189.5 84.8402 189.5 84.8402 189.5Z" stroke="#FCBF1E" stroke-width="8"/>
<path d="M72 180C72 182.209 70.6569 184 69 184C67.3431 184 66 182.209 66 180C66 177.791 67.3431 176 69 176C70.6569 176 72 177.791 72 180Z" fill="#FCBF1E"/>
<path d="M85 215C85 217.209 83.6569 219 82 219C80.3431 219 79 217.209 79 215C79 212.791 80.3431 211 82 211C83.6569 211 85 212.791 85 215Z" fill="#FCBF1E"/>
<path d="M72 180C72 182.209 70.6569 184 69 184C67.3431 184 66 182.209 66 180C66 177.791 67.3431 176 69 176C70.6569 176 72 177.791 72 180Z" fill="#FCBF1E"/>
<ellipse cx="95" cy="228.5" rx="7" ry="6.5" fill="#FCBF1E"/>
<path d="M127 228.5C127 232.09 123.866 235 120 235C116.134 235 113 232.09 113 228.5C113 224.91 116.134 222 120 222C123.866 222 127 224.91 127 228.5Z" fill="#FCBF1E"/>
<path d="M297 117.846L297 117.91V146.155C275.995 161.79 264.995 159.39 246 146.155V134.758V108H258.143H284.25C296.968 108 296.972 109.282 297 117.846Z" fill="#FCBF1E"/>
<path d="M172 182.5H215" stroke="#120136" stroke-width="7"/>
<path d="M172 199.5H249.5" stroke="#120136" stroke-width="7"/>
<path d="M175 182.5C175 184.433 173.657 186 172 186C170.343 186 169 184.433 169 182.5C169 180.567 170.343 179 172 179C173.657 179 175 180.567 175 182.5Z" fill="#120136"/>
<path d="M218 182.5C218 184.433 216.657 186 215 186C213.343 186 212 184.433 212 182.5C212 180.567 213.343 179 215 179C216.657 179 218 180.567 218 182.5Z" fill="#120136"/>
<path d="M175 199.5C175 201.433 173.657 203 172 203C170.343 203 169 201.433 169 199.5C169 197.567 170.343 196 172 196C173.657 196 175 197.567 175 199.5Z" fill="#120136"/>
<path d="M252 199.5C252 201.433 250.657 203 249 203C247.343 203 246 201.433 246 199.5C246 197.567 247.343 196 249 196C250.657 196 252 197.567 252 199.5Z" fill="#120136"/>
<rect x="169" y="218" width="84" height="22" rx="6" fill="#FC961E"/>
</g>
<defs>
<clipPath id="clip0">
<rect width="306" height="306" fill="white"/>
</clipPath>
</defs>
</svg>
